<svg width="20" height="20" viewBox="0 0 20 20" fill="none" xmlns="http://www.w3.org/2000/svg">
<path d="M11.25 11.0742C11.25 10.3839 10.6904 9.82422 10 9.82422C9.30964 9.82422 8.75 10.3839 8.75 11.0742V13.5742C8.75 14.2646 9.30964 14.8242 10 14.8242C10.6904 14.8242 11.25 14.2646 11.25 13.5742V11.0742Z" fill="#003746"/>
<path fill-rule="evenodd" clip-rule="evenodd" d="M15.3125 5.21673V5.10417C15.3125 3.7353 14.7411 2.43231 13.7402 1.47901C12.7408 0.527188 11.3946 0 10 0C8.6054 0 7.25927 0.527192 6.25987 1.47901C5.25891 2.4323 4.6875 3.73528 4.6875 5.10417V5.21673C3.97853 5.4326 3.35778 5.73598 2.83527 6.16493C1.26842 7.45123 0.9375 9.5638 0.9375 12.3438C0.9375 15.1237 1.26842 17.2363 2.83527 18.5226C3.60315 19.153 4.58321 19.5121 5.74365 19.7209C6.90226 19.9294 8.31247 20 10 20C11.6874 20 13.0975 19.9294 14.2561 19.7209C15.4165 19.5121 16.3966 19.153 17.1645 18.5226C18.7314 17.2363 19.0625 15.1238 19.0625 12.3438C19.0625 9.5638 18.7316 7.45123 17.1647 6.16493C16.6422 5.73598 16.0215 5.4326 15.3125 5.21673ZM10 1.875C9.07396 1.875 8.19451 2.22577 7.55297 2.83676C6.97897 3.38343 6.63786 4.0967 6.57361 4.84491C7.55814 4.72963 8.69632 4.6875 10 4.6875C11.3037 4.6875 12.4419 4.72963 13.4264 4.84491C13.3621 4.09669 13.021 3.38342 12.4471 2.83676C11.8055 2.22578 10.926 1.875 10 1.875ZM2.8125 12.3438C2.8125 9.53747 3.20092 8.29065 4.02498 7.61414C4.45256 7.26312 5.08586 6.99003 6.0757 6.81192C7.06737 6.63348 8.34436 6.5625 10 6.5625C11.6556 6.5625 12.9326 6.63348 13.9243 6.81192C14.9141 6.99003 15.5474 7.26312 15.975 7.61414C16.7991 8.29065 17.1875 9.53747 17.1875 12.3438C17.1875 15.15 16.799 16.3968 15.9748 17.0733C15.5472 17.4244 14.9139 17.6975 13.9241 17.8756C12.9324 18.054 11.6555 18.125 10 18.125C8.34436 18.125 7.06737 18.054 6.0757 17.8756C5.08586 17.6975 4.45256 17.4244 4.02498 17.0734C3.20092 16.3968 2.8125 15.15 2.8125 12.3438Z" fill="#003746"/>
</svg>
