<svg width="32" height="32" viewBox="0 0 32 32" fill="none" xmlns="http://www.w3.org/2000/svg">
<path d="M21.8267 11.0098C22.0578 10.7788 22.0578 10.4043 21.8267 10.1733C21.5957 9.94224 21.2212 9.94224 20.9902 10.1733L16 15.1634L11.0111 10.1746C10.7801 9.94356 10.4056 9.94356 10.1746 10.1746C9.94355 10.4056 9.94355 10.7801 10.1746 11.0112L15.1634 16L10.1733 20.9902C9.94225 21.2212 9.94225 21.5957 10.1733 21.8267C10.4043 22.0577 10.7788 22.0577 11.0098 21.8267L16 16.8366L20.9889 21.8254C21.2199 22.0565 21.5944 22.0565 21.8254 21.8254C22.0564 21.5944 22.0564 21.2199 21.8254 20.9889L16.8366 16L21.8267 11.0098Z" fill="#003746"/>
</svg>
