<svg width="22" height="21" viewBox="0 0 22 21" fill="none" xmlns="http://www.w3.org/2000/svg">
<path d="M10.5919 13.8191L10.5953 1.96856C10.5954 1.60612 10.8893 1.3124 11.2518 1.3125C11.6142 1.3126 11.9079 1.6065 11.9078 1.96894L11.9044 13.8222L16.0564 10.0162C16.3236 9.77134 16.7387 9.78939 16.9836 10.0566C17.2285 10.3237 17.2105 10.7389 16.9433 10.9838L12.5802 14.9833C11.8275 15.6733 10.6722 15.6732 9.91953 14.9833L5.55642 10.9838C5.28925 10.7389 5.2712 10.3237 5.51611 10.0566C5.76102 9.78939 6.17614 9.77134 6.44331 10.0162L10.5919 13.8191Z" fill="#005162"/>
<path d="M1.36317 11.5951C1.72483 11.5714 2.03721 11.8454 2.06088 12.2071C2.21455 14.555 2.78736 15.8171 4.01273 16.5748C5.32999 17.3893 7.53167 17.7183 11.2498 17.7187C14.968 17.7187 17.1696 17.3897 18.4868 16.5751C19.7122 15.8173 20.285 14.555 20.4387 12.2071C20.4624 11.8454 20.7747 11.5714 21.1364 11.5951C21.4981 11.6188 21.772 11.9312 21.7484 12.2928C21.5843 14.8004 20.9412 16.6005 19.1771 17.6914C17.5049 18.7255 14.9436 19.0312 11.2498 19.0312C7.55602 19.0308 4.99466 18.7251 3.32247 17.6911C1.55841 16.6004 0.915307 14.8004 0.751181 12.2928C0.727509 11.9312 1.00151 11.6188 1.36317 11.5951Z" fill="#005162"/>
</svg>
