<svg width="190" height="158" viewBox="0 0 190 158" fill="none" xmlns="http://www.w3.org/2000/svg">
<path d="M110.219 85.8125C110.219 85.4501 110.513 85.1563 110.875 85.1563H112.625C112.987 85.1563 113.281 85.4501 113.281 85.8125C113.281 86.1749 112.987 86.4688 112.625 86.4688H110.875C110.513 86.4688 110.219 86.1749 110.219 85.8125Z" fill="#003746"/>
<path d="M100.812 90.1521C100.45 90.1521 100.156 90.446 100.156 90.8084C100.156 91.1708 100.45 91.4646 100.812 91.4646H112.188C112.55 91.4646 112.844 91.1708 112.844 90.8084C112.844 90.446 112.55 90.1521 112.188 90.1521H100.812Z" fill="#003746"/>
<path fill-rule="evenodd" clip-rule="evenodd" d="M103.454 74.6562C101.862 74.6562 100.594 75.971 100.594 77.5633V80.8319C99.0528 81.2232 97.8771 81.8806 97.0998 82.9756C96.304 84.0966 96 85.5735 96 87.4218C96 88.8184 96.177 89.9988 96.6062 90.9747C97.043 91.9677 97.7263 92.7152 98.6711 93.2567C99.5995 93.7888 100.76 94.1104 102.145 94.303C103.533 94.4959 105.188 94.5643 107.128 94.5643C109.067 94.5643 110.648 94.4961 111.924 94.3017C113.197 94.1078 114.222 93.7806 115.01 93.223C116.643 92.0673 117 90.1198 117 87.4218C117 85.4314 116.821 83.8521 116.079 82.6964C115.338 81.5426 114.125 80.9343 112.406 80.6148V77.5633C112.406 75.971 111.138 74.6562 109.546 74.6562H103.454ZM112.406 81.9527V82.75C112.406 83.1124 112.112 83.4063 111.75 83.4063H101.25C100.888 83.4063 100.594 83.1124 100.594 82.75V82.1923C99.4219 82.5369 98.6627 83.0413 98.17 83.7354C97.6029 84.5342 97.3125 85.6898 97.3125 87.4218C97.3125 88.7217 97.4796 89.7004 97.8076 90.4463C98.1282 91.1751 98.6154 91.712 99.3237 92.118C100.048 92.5333 101.024 92.822 102.326 93.003C103.625 93.1835 105.209 93.2518 107.128 93.2518C109.049 93.2518 110.55 93.1833 111.726 93.0042C112.905 92.8247 113.701 92.5415 114.252 92.1516C115.296 91.4125 115.688 90.1168 115.688 87.4218C115.688 85.4375 115.491 84.21 114.974 83.4056C114.535 82.7223 113.795 82.2449 112.406 81.9527ZM101.906 77.5633C101.906 76.6699 102.612 75.9688 103.454 75.9688H109.546C110.388 75.9688 111.094 76.6699 111.094 77.5633V82.0938H101.906V77.5633Z" fill="#003746"/>
<path d="M30.4711 20.3598C30.0104 20.2099 29.5867 20.0859 29.1823 19.9844C29.569 19.5462 29.9733 19.0291 30.368 18.4863C31.4376 17.0139 31.9789 15.8766 31.9789 14.8633C31.9789 13.1541 30.8062 11.991 28.5638 10.2126C26.861 8.8626 25.5272 8.11835 24.269 8.11835C22.8611 8.11835 21.5981 9.03175 20.1338 11.047C19.8503 11.4385 19.6006 11.8041 19.3815 12.1489C19.0851 11.6463 18.7178 11.1018 18.3231 10.5589C16.8829 8.57747 15.7118 7.74462 14.3635 7.74462C13.1327 7.74462 11.757 8.48564 9.89475 9.72122C7.5428 11.2822 6.4216 12.5033 6.4216 14.2527C6.4216 15.3176 7.00798 16.508 8.0873 17.9965C8.37082 18.388 8.64146 18.7376 8.89276 19.0533C8.32411 19.179 7.69262 19.361 7.0547 19.5672C4.03099 20.5498 3 21.7629 3 23.7717C3 24.7238 3.2658 25.8949 3.66531 27.3302C4.59159 30.6536 5.71924 32.1791 8.06636 32.1791C8.85732 32.1791 9.83837 31.9794 10.9773 31.6072C11.4364 31.4574 11.8536 31.3092 12.2338 31.1594C12.1774 31.7393 12.1549 32.3966 12.1549 33.0683C12.1549 37.8399 13.9736 38.6985 19.3219 38.6985C23.0173 38.6985 24.8071 37.7497 24.8071 33.0683C24.8071 32.5851 24.7958 32.1421 24.77 31.7345C25.3049 31.9665 25.9218 32.1904 26.5598 32.3982C27.5512 32.745 28.5913 32.9326 29.6415 32.954C31.5488 32.954 32.7022 31.2738 33.8701 28.1212C34.4179 26.6536 34.6982 25.4519 34.6982 24.4628C34.6982 22.4507 33.4223 21.3199 30.4711 20.3598ZM23.383 13.6809L23.9066 12.9624C23.9698 12.8641 24.0538 12.7808 24.1525 12.7182C24.2512 12.6556 24.3623 12.6152 24.4782 12.5999C24.5941 12.5846 24.7119 12.5946 24.8235 12.6294C24.9351 12.6642 25.0378 12.7229 25.1244 12.8013C27.18 14.5975 28.451 17.2668 28.4284 19.8056C27.2122 19.5752 26.323 19.6445 25.6125 20.0988C25.6335 19.9699 25.6464 19.8314 25.6576 19.6848C25.7317 18.1834 24.9778 16.5821 23.4958 14.8762C23.1704 14.5121 23.0753 14.0917 23.3798 13.6809H23.383ZM21.4644 18.9776C23.2268 20.2567 24.2336 20.7786 24.8167 20.8414C24.2642 21.5535 23.8115 22.6134 23.3347 24.0762C22.6629 26.1478 22.4777 27.2658 22.5985 27.8409C21.7512 27.5364 20.6042 27.4317 19.0641 27.4317C16.8878 27.4317 15.765 27.6009 15.2559 27.8924C15.2849 26.9935 15.0288 25.8707 14.5535 24.4064C13.8802 22.3364 13.3727 21.3215 12.9426 20.9268C13.8061 20.6755 14.7952 20.0859 16.042 19.1806C17.8028 17.9015 18.6099 17.1041 18.8499 16.5693C19.3573 17.3135 20.224 18.0723 21.4644 18.9776ZM11.2963 13.8033C13.6402 12.4018 16.572 12.0184 18.9788 12.8239C18.3843 13.9112 18.1733 14.7795 18.3875 15.5946C18.2732 15.535 18.1443 15.4787 18.0074 15.4223C16.6043 14.8875 14.8467 15.1098 12.767 15.9925C12.3144 16.1842 11.8875 16.1391 11.5894 15.7284L11.0675 15.0083C10.9946 14.917 10.9425 14.811 10.9147 14.6976C10.8868 14.5841 10.884 14.466 10.9064 14.3514C10.9288 14.2368 10.9758 14.1284 11.0442 14.0337C11.1127 13.9391 11.2009 13.8605 11.3027 13.8033H11.2963ZM11.5878 21.3746C10.6454 22.5442 10.3136 24.284 10.5101 26.5296C10.5536 27.0129 10.378 27.4124 9.89637 27.5686L9.0603 27.8441C8.95116 27.8857 8.83428 27.9031 8.71775 27.895C8.60123 27.887 8.48785 27.8537 8.38548 27.7974C8.28311 27.7412 8.1942 27.6634 8.12491 27.5693C8.05562 27.4753 8.0076 27.3673 7.9842 27.2529C7.37688 24.5917 7.91815 21.6839 9.43403 19.6429C10.283 20.545 11.045 21.0074 11.8859 21.0605C11.7828 21.1523 11.6893 21.257 11.5943 21.3698L11.5878 21.3746ZM20.6316 33.7336C20.6374 33.8502 20.6179 33.9667 20.5743 34.075C20.5306 34.1833 20.464 34.2808 20.379 34.3608C20.2939 34.4408 20.1925 34.5013 20.0817 34.5382C19.971 34.5751 19.8535 34.5875 19.7375 34.5745C17.0183 34.3297 14.4215 32.9169 12.9475 30.8501C14.0751 30.3201 14.742 29.7386 15.0529 28.9556C15.1109 29.0732 15.1834 29.1941 15.2607 29.3181C16.0823 30.5762 17.6336 31.4284 19.8342 31.9375C20.3174 32.0486 20.6396 32.3354 20.6396 32.8428L20.6316 33.7336ZM30.3309 25.6468C29.2581 28.1566 27.1091 30.1912 24.6927 30.9532C24.5316 29.7257 24.1901 28.9025 23.5425 28.3661C23.6714 28.3451 23.8083 28.3161 23.9517 28.2807C25.4015 27.8876 26.6902 26.6697 27.8566 24.7366C28.1095 24.3146 28.48 24.1003 28.9633 24.2534L29.8106 24.5288C29.924 24.5588 30.0295 24.6132 30.1196 24.6882C30.2098 24.7632 30.2825 24.857 30.3327 24.963C30.3829 25.069 30.4093 25.1847 30.4101 25.302C30.4109 25.4192 30.3861 25.5353 30.3374 25.642L30.3309 25.6468Z" fill="#FF1B44"/>
<path d="M54.0969 20.9688V20.848C56.1911 19.6946 57.1914 18.1481 57.1914 16.0845C57.1914 12.7177 54.7042 10.5945 50.4256 10.5945H42.9638C42.5691 10.5945 42.3564 10.8071 42.3564 11.2018V31.2223C42.3564 31.617 42.5691 31.8297 42.9638 31.8297H50.7606C55.4323 31.8297 57.8584 29.7677 57.8584 26.127C57.8584 23.7605 56.4939 21.9402 54.0969 20.9688ZM45.9359 13.3556H50.1533C52.8532 13.3556 53.4895 13.9919 53.4895 16.5404C53.4895 19.1179 52.8532 19.7252 50.1533 19.7252H45.9359V13.3556ZM50.6688 29.0685H45.9359V22.4831H50.6688C53.4895 22.4831 54.1661 23.1274 54.1661 25.7629C54.1661 28.3984 53.4895 29.0685 50.6688 29.0685ZM140.7 16.1811C136.18 16.1811 133.237 19.3353 133.237 24.0988C133.237 28.8929 136.18 32.0181 140.7 32.0181C144.069 32.0181 146.646 30.2896 147.648 27.6493C147.799 27.2852 147.558 27.042 147.133 27.042H144.979C144.821 27.0344 144.665 27.0815 144.537 27.1754C144.41 27.2693 144.319 27.4043 144.28 27.5575C143.796 29.0444 142.915 29.4696 140.639 29.4696C137.818 29.4696 136.968 28.5901 136.847 25.0396H147.376C147.769 25.0396 147.981 24.827 147.981 24.4323V24.094C147.981 19.1775 145.191 16.1747 140.7 16.1747V16.1811ZM136.877 23.0066C136.998 19.5786 137.818 18.7296 140.639 18.7296C143.46 18.7296 144.31 19.6398 144.433 23.0066H136.877ZM125.652 16.1811C123.681 16.1811 122.133 16.8175 120.768 18.3656H120.676C119.584 16.8481 118.279 16.1811 116.488 16.1811C114.577 16.1811 113.09 16.9093 111.998 18.3656H111.876L111.301 16.8448C111.251 16.7008 111.156 16.5764 111.031 16.4895C110.905 16.4027 110.756 16.3579 110.603 16.3616H109.153C108.759 16.3616 108.548 16.5726 108.548 16.9673V31.2272C108.548 31.6218 108.759 31.8345 109.153 31.8345H111.46C111.853 31.8345 112.066 31.6218 112.066 31.2272V21.61C112.066 19.2129 112.612 18.728 115.191 18.728C117.527 18.728 118.104 19.2741 118.104 21.61V31.2272C118.104 31.6218 118.316 31.8345 118.711 31.8345H120.987C121.38 31.8345 121.593 31.6218 121.593 31.2272V21.61C121.593 19.2129 122.139 18.728 124.718 18.728C127.054 18.728 127.631 19.2741 127.631 21.61V31.2272C127.631 31.6218 127.843 31.8345 128.238 31.8345H130.513C130.907 31.8345 131.12 31.6218 131.12 31.2272V23.1822C131.114 18.6314 129.354 16.1747 125.652 16.1747V16.1811ZM162.704 31.108L157.749 23.7589V23.6381L162.27 17.0849C162.543 16.6596 162.361 16.3567 161.876 16.3567H159.601C159.455 16.3449 159.308 16.3758 159.179 16.4455C159.05 16.5153 158.943 16.621 158.873 16.7498L155.87 21.6953H155.748L152.776 16.7804C152.707 16.648 152.602 16.5378 152.473 16.4628C152.344 16.3878 152.197 16.351 152.047 16.3567H149.497C149.014 16.3567 148.83 16.6902 149.104 17.0849L153.625 23.8507V23.9716L148.74 31.1015C148.466 31.5268 148.618 31.8297 149.104 31.8297H151.41C151.557 31.8445 151.705 31.8148 151.834 31.7444C151.964 31.674 152.07 31.5662 152.138 31.435L155.535 25.9433H155.627L159.055 31.435C159.123 31.5662 159.228 31.674 159.358 31.7444C159.488 31.8148 159.636 31.8445 159.783 31.8297H162.301C162.788 31.8264 162.97 31.5042 162.696 31.1015L162.704 31.108ZM99.1367 16.1747C95.9809 16.1747 93.4324 18.0546 92.7043 20.6949C92.5818 21.1202 92.8251 21.3619 93.2504 21.3619H95.3446C95.7086 21.3619 95.9213 21.1798 96.0131 20.7852C96.316 19.2081 97.1053 18.7232 99.1383 18.7232C101.382 18.7232 102.02 19.1179 102.02 21.6663V21.8178C102.02 22.4847 101.777 22.7279 101.11 22.7279H98.3779C94.5842 22.7279 92.0663 24.3968 92.0663 27.369C92.0663 30.1913 94.3732 32.0117 97.1939 32.0117C99.2881 32.0117 100.986 31.1015 102.049 29.4342H102.172L102.779 31.3158C102.81 31.4675 102.894 31.603 103.016 31.6977C103.139 31.7923 103.291 31.8398 103.446 31.8313H104.896C105.29 31.8313 105.503 31.6186 105.503 31.2239V22.3961C105.508 18.662 102.99 16.1747 99.1367 16.1747ZM102.019 25.6405C102.019 28.3404 100.804 29.555 98.0735 29.555C95.9793 29.555 95.496 29.0073 95.496 27.2482C95.496 25.3972 95.8907 24.943 98.2571 24.943H102.02L102.019 25.6405ZM84.3919 16.1747C82.4491 16.1747 80.9026 16.9028 79.7798 18.3591H79.6574L79.0823 16.8448C79.0319 16.7007 78.937 16.5762 78.8114 16.4894C78.6858 16.4025 78.5358 16.3578 78.3831 16.3616H76.9333C76.5403 16.3616 76.3276 16.5726 76.3276 16.9673V31.2272C76.3276 31.6218 76.5403 31.8345 76.9333 31.8345H79.2402C79.6348 31.8345 79.8475 31.6218 79.8475 31.2272V21.61C79.8475 19.2129 80.3936 18.728 83.0935 18.728C85.5212 18.728 86.1269 19.2741 86.1269 21.61V31.2272C86.1269 31.6218 86.3395 31.8345 86.7342 31.8345H89.0088C89.4035 31.8345 89.6161 31.6218 89.6161 31.2272V23.1822C89.6064 18.6926 87.7281 16.1747 84.3919 16.1747ZM66.9166 16.1747C63.7608 16.1747 61.2123 18.0546 60.4842 20.6949C60.3634 21.1202 60.605 21.3619 61.0303 21.3619H63.1245C63.4885 21.3619 63.6996 21.1798 63.7914 20.7852C64.0943 19.2081 64.8836 18.7232 66.9166 18.7232C69.1622 18.7232 69.7985 19.1179 69.7985 21.6663V21.8178C69.7985 22.4847 69.5553 22.7279 68.8884 22.7279H66.1578C62.3657 22.7279 59.8462 24.3968 59.8462 27.369C59.8462 30.1913 62.1531 32.0117 64.9754 32.0117C67.0696 32.0117 68.7675 31.1015 69.8291 29.4342H69.9532L70.5605 31.3158C70.5912 31.4675 70.6755 31.603 70.798 31.6977C70.9204 31.7923 71.0729 31.8398 71.2274 31.8313H72.6772C73.0719 31.8313 73.2846 31.6186 73.2846 31.2239V22.3961C73.2878 18.662 70.7699 16.1747 66.9166 16.1747ZM69.7921 25.6405C69.7921 28.3404 68.5791 29.555 65.8485 29.555C63.7543 29.555 63.2711 29.0073 63.2711 27.2482C63.2711 25.3972 63.6657 24.943 66.0322 24.943H69.7921V25.6405Z" fill="#003746"/>
<path fill-rule="evenodd" clip-rule="evenodd" d="M144.344 79.5521V79.6084C143.989 79.7163 143.679 79.868 143.418 80.0825C142.634 80.7256 142.469 81.7819 142.469 83.1719C142.469 84.5619 142.634 85.6181 143.418 86.2613C143.802 86.5765 144.292 86.7561 144.872 86.8605C145.451 86.9647 146.156 87 147 87C147.844 87 148.549 86.9647 149.128 86.8605C149.708 86.7561 150.198 86.5765 150.582 86.2613C151.366 85.6182 151.531 84.5619 151.531 83.1719C151.531 81.7819 151.366 80.7256 150.582 80.0825C150.321 79.868 150.011 79.7163 149.656 79.6084V79.5521C149.656 78.8676 149.371 78.2162 148.87 77.7395C148.37 77.2636 147.697 77 147 77C146.303 77 145.63 77.2636 145.13 77.7395C144.629 78.2161 144.344 78.8676 144.344 79.5521ZM147 77.9375C146.537 77.9375 146.097 78.1129 145.776 78.4184C145.489 78.6917 145.319 79.0483 145.287 79.4225C145.779 79.3648 146.348 79.3438 147 79.3438C147.652 79.3438 148.221 79.3648 148.713 79.4225C148.681 79.0483 148.511 78.6917 148.224 78.4184C147.903 78.1129 147.463 77.9375 147 77.9375ZM147 81.9121C147.345 81.9121 147.625 82.1919 147.625 82.5371V83.7871C147.625 84.1323 147.345 84.4121 147 84.4121C146.655 84.4121 146.375 84.1323 146.375 83.7871V82.5371C146.375 82.1919 146.655 81.9121 147 81.9121Z" fill="#003746"/>
<path d="M159.391 134.178C159.745 133.824 159.745 133.25 159.391 132.896C159.037 132.542 158.463 132.542 158.109 132.896L148.729 142.277C148.543 142.462 148.243 142.462 148.057 142.277L144.891 139.11C144.537 138.756 143.963 138.756 143.609 139.11C143.255 139.464 143.255 140.038 143.609 140.392L146.776 143.558C147.669 144.452 149.117 144.452 150.01 143.558L159.391 134.178Z" fill="#00AD59"/>
<path fill-rule="evenodd" clip-rule="evenodd" d="M151.5 151.188C139.567 151.188 137 149.05 137 138.5C137 127.95 139.567 125.812 151.5 125.812C163.433 125.812 166 127.95 166 138.5C166 149.05 163.432 151.188 151.5 151.188ZM151.5 149.375C148.55 149.375 146.288 149.241 144.539 148.908C142.799 148.577 141.702 148.073 140.964 147.432C139.514 146.172 138.812 143.817 138.812 138.5C138.812 133.183 139.514 130.828 140.964 129.568C141.702 128.927 142.799 128.423 144.539 128.092C146.288 127.759 148.55 127.625 151.5 127.625C154.45 127.625 156.712 127.759 158.461 128.092C160.201 128.423 161.298 128.927 162.036 129.568C163.486 130.828 164.188 133.183 164.188 138.5C164.188 143.817 163.486 146.172 162.036 147.432C161.298 148.073 160.201 148.577 158.46 148.908C156.712 149.241 154.45 149.375 151.5 149.375Z" fill="#00AD59"/>
<path d="M116 146.125C117.029 146.125 117.25 145.914 117.25 144.875C117.25 143.836 117.029 143.625 116 143.625C114.971 143.625 114.75 143.836 114.75 144.875C114.75 145.914 114.971 146.125 116 146.125Z" fill="#FF1B44"/>
<path d="M116.938 130.5C116.937 129.982 116.518 129.562 116 129.562C115.482 129.563 115.062 129.982 115.062 130.5L115.065 140.5C115.065 141.018 115.485 141.438 116.003 141.437C116.52 141.437 116.94 141.018 116.94 140.5L116.938 130.5Z" fill="#FF1B44"/>
<path fill-rule="evenodd" clip-rule="evenodd" d="M106.742 147.258C114.44 154.952 117.64 154.873 125.257 147.258C132.872 139.642 132.956 136.437 125.257 128.743C117.559 121.048 114.357 121.123 106.742 128.743C99.1274 136.362 99.0445 139.563 106.742 147.258ZM119.22 149.975C120.54 149.127 122.055 147.808 123.931 145.932C125.807 144.056 127.127 142.54 127.975 141.22C128.812 139.918 129.122 138.911 129.125 138.022C129.128 137.135 128.827 136.126 127.994 134.818C127.15 133.491 125.827 131.963 123.932 130.069C122.037 128.175 120.508 126.852 119.18 126.007C117.872 125.174 116.862 124.872 115.975 124.875C115.087 124.878 114.08 125.187 112.779 126.024C111.459 126.872 109.944 128.191 108.069 130.068C106.193 131.945 104.873 133.461 104.025 134.781C103.188 136.084 102.878 137.091 102.875 137.979C102.872 138.866 103.173 139.875 104.006 141.183C104.85 142.51 106.173 144.038 108.068 145.932C109.963 147.825 111.491 149.148 112.818 149.993C114.127 150.826 115.136 151.127 116.023 151.124C116.911 151.121 117.918 150.811 119.22 149.975Z" fill="#FF1B44"/>
<path fill-rule="evenodd" clip-rule="evenodd" d="M157.445 113.555C162.064 118.171 163.984 118.124 168.554 113.555C173.123 108.985 173.174 107.062 168.554 102.446C163.935 97.829 162.014 97.874 157.445 102.446C152.876 107.017 152.827 108.938 157.445 113.555ZM163 102.857C163.355 102.857 163.643 103.145 163.643 103.5L163.644 109.5C163.644 109.855 163.357 110.143 163.002 110.143C162.647 110.143 162.359 109.855 162.359 109.5L162.357 103.5C162.357 103.145 162.645 102.857 163 102.857ZM163 112.875C163.617 112.875 163.75 112.749 163.75 112.125C163.75 111.502 163.617 111.375 163 111.375C162.383 111.375 162.25 111.502 162.25 112.125C162.25 112.749 162.383 112.875 163 112.875Z" fill="#FF1B44"/>
<path fill-rule="evenodd" clip-rule="evenodd" d="M27.7582 107.577C27.7582 107.306 27.9778 107.087 28.2486 107.087H28.8156C29.2413 107.087 29.5855 107.264 29.812 107.551C30.0267 107.822 30.1118 108.158 30.1118 108.462C30.1118 108.809 29.9947 109.143 29.7598 109.394C29.5217 109.649 29.188 109.791 28.8156 109.791H28.739V110.519C28.739 110.79 28.5194 111.01 28.2486 111.01C27.9778 111.01 27.7582 110.79 27.7582 110.519V107.577ZM28.739 108.81H28.8156C28.9313 108.81 29.0005 108.77 29.0433 108.724C29.0892 108.675 29.131 108.59 29.131 108.462C29.131 108.328 29.0919 108.221 29.0431 108.159C29.0061 108.113 28.9473 108.067 28.8156 108.067H28.739V108.81Z" fill="#003746"/>
<path fill-rule="evenodd" clip-rule="evenodd" d="M31.1606 107.087C30.8898 107.087 30.6702 107.306 30.6702 107.577V110.519C30.6702 110.79 30.8898 111.01 31.1606 111.01H31.7126C32.2024 111.01 32.603 110.781 32.8583 110.384C33.0964 110.014 33.1906 109.529 33.1906 109.005C33.1906 108.557 33.1181 108.094 32.8919 107.728C32.6449 107.328 32.2399 107.087 31.7126 107.087H31.1606ZM31.651 110.029V108.067H31.7126C31.9006 108.067 31.9894 108.133 32.0573 108.243C32.1462 108.387 32.2098 108.639 32.2098 109.005C32.2098 109.432 32.1295 109.704 32.0335 109.853C31.9546 109.976 31.8614 110.029 31.7126 110.029H31.651Z" fill="#003746"/>
<path d="M33.749 107.577C33.749 107.306 33.9686 107.087 34.2394 107.087H35.4409C35.7117 107.087 35.9313 107.306 35.9313 107.577C35.9313 107.848 35.7117 108.067 35.4409 108.067H34.7298V108.526H35.2089C35.4797 108.526 35.6993 108.746 35.6993 109.016C35.6993 109.287 35.4797 109.507 35.2089 109.507H34.7298V110.519C34.7298 110.79 34.5102 111.01 34.2394 111.01C33.9686 111.01 33.749 110.79 33.749 110.519V107.577Z" fill="#003746"/>
<path fill-rule="evenodd" clip-rule="evenodd" d="M32.707 118.692H28.8557C27.3612 118.692 26.2404 117.571 26.2404 116.077V105.615C26.2404 104.121 27.3612 103 28.8557 103H34.8338C36.3283 103 37.4491 104.121 37.4491 105.615V114.333C37.4491 116.513 34.6469 118.692 32.707 118.692ZM32.1219 117.712H28.8557C27.9029 117.712 27.2211 117.03 27.2211 116.077V105.615C27.2211 104.663 27.9029 103.981 28.8557 103.981H34.8338C35.7866 103.981 36.4684 104.663 36.4684 105.615V113.345H34.0316C33.5197 113.345 33.0288 113.548 32.6669 113.91C32.305 114.272 32.1016 114.763 32.1016 115.275V117.571C32.1016 117.62 32.1087 117.667 32.1219 117.712ZM33.0711 117.676C33.6911 117.564 34.4719 117.188 35.1632 116.589C36.0018 115.862 36.4684 115.019 36.4684 114.333V114.325H34.0316C33.7799 114.325 33.5384 114.425 33.3604 114.603C33.1824 114.782 33.0824 115.023 33.0824 115.275V117.571C33.0824 117.607 33.0785 117.643 33.0711 117.676Z" fill="#003746"/>
</svg>
