<svg width="50" height="750" viewBox="0 0 50 750" fill="none" xmlns="http://www.w3.org/2000/svg">
<rect width="50" height="750" fill="#F5F5F5"/>
<rect x="-83" y="-746" width="1040" height="1522" rx="12" fill="white"/>
<path fill-rule="evenodd" clip-rule="evenodd" d="M15.1008 85.6037C15.3789 85.8665 15.3913 86.3049 15.1285 86.583L9.21508 92.8408C8.27661 93.8339 6.72352 93.8339 5.78504 92.8408L-0.128435 86.583C-0.391198 86.3049 -0.378795 85.8665 -0.100735 85.6037C0.177326 85.341 0.61575 85.3534 0.878511 85.6314L6.79199 91.8892C7.1838 92.3038 7.81632 92.3038 8.20813 91.8892L14.1216 85.6314C14.3843 85.3534 14.8227 85.341 15.1008 85.6037Z" fill="#003746"/>
<path fill-rule="evenodd" clip-rule="evenodd" d="M50.1008 86.6037C50.3789 86.8665 50.3913 87.3049 50.1285 87.583L44.2151 93.8408C43.2766 94.8339 41.7235 94.8339 40.785 93.8408L34.8716 87.583C34.6088 87.3049 34.6212 86.8665 34.8993 86.6037C35.1773 86.341 35.6158 86.3534 35.8785 86.6314L41.792 92.8892C42.1838 93.3038 42.8163 93.3038 43.2081 92.8892L49.1216 86.6314C49.3843 86.3534 49.8227 86.341 50.1008 86.6037Z" fill="#005162"/>
<path fill-rule="evenodd" clip-rule="evenodd" d="M0.399313 68.3963C0.121251 68.1335 0.108847 67.6951 0.371608 67.417L6.28504 61.1592C7.22352 60.1661 8.7766 60.1661 9.71508 61.1592L15.6286 67.417C15.8913 67.6951 15.8789 68.1335 15.6009 68.3963C15.3228 68.659 14.8844 68.6466 14.6216 68.3686L8.70813 62.1108C8.31632 61.6962 7.6838 61.6962 7.29199 62.1108L1.37856 68.3686C1.1158 68.6466 0.677375 68.659 0.399313 68.3963Z" fill="#003746"/>
<path fill-rule="evenodd" clip-rule="evenodd" d="M34.3993 68.3963C34.1213 68.1335 34.1088 67.6951 34.3716 67.417L40.285 61.1592C41.2235 60.1661 42.7766 60.1661 43.7151 61.1592L49.6286 67.417C49.8913 67.6951 49.8789 68.1335 49.6009 68.3963C49.3228 68.659 48.8844 68.6466 48.6216 68.3686L42.7081 62.1108C42.3163 61.6962 41.6838 61.6962 41.292 62.1108L35.3786 68.3686C35.1158 68.6466 34.6774 68.659 34.3993 68.3963Z" fill="#005162"/>
<path d="M17.0536 19.2C17.0536 17.2965 18.5966 15.7535 20.5 15.7535H28C29.9034 15.7535 31.4464 17.2965 31.4464 19.2V26.7C31.4464 28.6034 29.9034 30.1464 28 30.1464H20.5C18.5966 30.1464 17.0536 28.6034 17.0536 26.7V19.2Z" fill="white"/>
<path d="M17.0536 19.2C17.0536 17.2965 18.5966 15.7535 20.5 15.7535H28C29.9034 15.7535 31.4464 17.2965 31.4464 19.2V26.7C31.4464 28.6034 29.9034 30.1464 28 30.1464H20.5C18.5966 30.1464 17.0536 28.6034 17.0536 26.7V19.2Z" stroke="#00AD59" stroke-width="1.10714"/>
<path d="M24.6134 20.4589C24.6134 20.2583 24.4507 20.0956 24.2501 20.0956C24.0495 20.0956 23.8868 20.2583 23.8868 20.4589L23.8868 22.5867H21.759C21.5584 22.5867 21.3958 22.7493 21.3958 22.95C21.3958 23.1506 21.5584 23.3132 21.759 23.3132H23.8868L23.8868 25.441C23.8868 25.6417 24.0495 25.8043 24.2501 25.8043C24.4507 25.8043 24.6134 25.6417 24.6134 25.441L24.6134 23.3132H26.7412C26.9418 23.3132 27.1045 23.1506 27.1045 22.95C27.1045 22.7493 26.9418 22.5867 26.7412 22.5867H24.6134L24.6134 20.4589Z" fill="#003746"/>
<path d="M17.0536 39.2C17.0536 37.2965 18.5966 35.7535 20.5 35.7535H28C29.9034 35.7535 31.4464 37.2965 31.4464 39.2V46.7C31.4464 48.6034 29.9034 50.1464 28 50.1464H20.5C18.5966 50.1464 17.0536 48.6034 17.0536 46.7V39.2Z" fill="white"/>
<path d="M17.0536 39.2C17.0536 37.2965 18.5966 35.7535 20.5 35.7535H28C29.9034 35.7535 31.4464 37.2965 31.4464 39.2V46.7C31.4464 48.6034 29.9034 50.1464 28 50.1464H20.5C18.5966 50.1464 17.0536 48.6034 17.0536 46.7V39.2Z" stroke="#00AD59" stroke-width="1.10714"/>
<path d="M24.6134 40.4589C24.6134 40.2583 24.4507 40.0956 24.2501 40.0956C24.0495 40.0956 23.8868 40.2583 23.8868 40.4589L23.8868 42.5867H21.759C21.5584 42.5867 21.3958 42.7493 21.3958 42.95C21.3958 43.1506 21.5584 43.3132 21.759 43.3132H23.8868L23.8868 45.441C23.8868 45.6417 24.0495 45.8043 24.2501 45.8043C24.4507 45.8043 24.6134 45.6417 24.6134 45.441L24.6134 43.3132H26.7412C26.9418 43.3132 27.1045 43.1506 27.1045 42.95C27.1045 42.7493 26.9418 42.5867 26.7412 42.5867H24.6134L24.6134 40.4589Z" fill="#003746"/>
<path d="M15.6936 3.03866C15.6936 1.68785 16.7887 0.592808 18.1395 0.592808H23.4621C24.8129 0.592808 25.9079 1.68785 25.9079 3.03866V8.36124C25.9079 9.71205 24.8129 10.8071 23.4621 10.8071H18.1395C16.7887 10.8071 15.6936 9.71205 15.6936 8.36124V3.03866Z" fill="white"/>
<path d="M15.6936 3.03866C15.6936 1.68785 16.7887 0.592808 18.1395 0.592808H23.4621C24.8129 0.592808 25.9079 1.68785 25.9079 3.03866V8.36124C25.9079 9.71205 24.8129 10.8071 23.4621 10.8071H18.1395C16.7887 10.8071 15.6936 9.71205 15.6936 8.36124V3.03866Z" stroke="#00AD59" stroke-width="0.785714"/>
<path d="M21.0586 3.9321C21.0586 3.78971 20.9432 3.67429 20.8008 3.67429C20.6584 3.67429 20.543 3.78971 20.543 3.9321L20.543 5.44214H19.033C18.8906 5.44214 18.7751 5.55757 18.7751 5.69996C18.7751 5.84234 18.8906 5.95777 19.033 5.95777H20.543L20.543 7.46781C20.543 7.6102 20.6584 7.72563 20.8008 7.72563C20.9432 7.72563 21.0586 7.6102 21.0586 7.46781L21.0586 5.95777H22.5687C22.7111 5.95777 22.8265 5.84234 22.8265 5.69996C22.8265 5.55757 22.7111 5.44214 22.5687 5.44214H21.0586L21.0586 3.9321Z" fill="#003746"/>
<path d="M1.05357 19.3333C1.05357 17.3562 2.65629 15.7535 4.63333 15.7535H11.8667C13.8437 15.7535 15.4464 17.3562 15.4464 19.3333V26.5666C15.4464 28.5437 13.8437 30.1464 11.8667 30.1464H4.63333C2.65629 30.1464 1.05357 28.5437 1.05357 26.5666V19.3333Z" fill="white"/>
<path d="M1.05357 19.3333C1.05357 17.3562 2.65629 15.7535 4.63333 15.7535H11.8667C13.8437 15.7535 15.4464 17.3562 15.4464 19.3333V26.5666C15.4464 28.5437 13.8437 30.1464 11.8667 30.1464H4.63333C2.65629 30.1464 1.05357 28.5437 1.05357 26.5666V19.3333Z" stroke="#00AD59" stroke-width="1.10714"/>
<path fill-rule="evenodd" clip-rule="evenodd" d="M5.39575 22.95C5.39575 22.7493 5.5584 22.5867 5.75903 22.5867H10.7412C10.9418 22.5867 11.1045 22.7493 11.1045 22.95C11.1045 23.1506 10.9418 23.3132 10.7412 23.3132H5.75903C5.5584 23.3132 5.39575 23.1506 5.39575 22.95Z" fill="#003746"/>
<path d="M1.05357 39.3333C1.05357 37.3562 2.65629 35.7535 4.63333 35.7535H11.8667C13.8437 35.7535 15.4464 37.3562 15.4464 39.3333V46.5666C15.4464 48.5437 13.8437 50.1464 11.8667 50.1464H4.63333C2.65629 50.1464 1.05357 48.5437 1.05357 46.5666V39.3333Z" fill="white"/>
<path d="M1.05357 39.3333C1.05357 37.3562 2.65629 35.7535 4.63333 35.7535H11.8667C13.8437 35.7535 15.4464 37.3562 15.4464 39.3333V46.5666C15.4464 48.5437 13.8437 50.1464 11.8667 50.1464H4.63333C2.65629 50.1464 1.05357 48.5437 1.05357 46.5666V39.3333Z" stroke="#00AD59" stroke-width="1.10714"/>
<path fill-rule="evenodd" clip-rule="evenodd" d="M5.39575 42.95C5.39575 42.7493 5.5584 42.5867 5.75903 42.5867H10.7412C10.9418 42.5867 11.1045 42.7493 11.1045 42.95C11.1045 43.1506 10.9418 43.3132 10.7412 43.3132H5.75903C5.5584 43.3132 5.39575 43.1506 5.39575 42.95Z" fill="#003746"/>
<path d="M0.392857 3.38462C0.392857 1.73231 1.73231 0.392857 3.38462 0.392857H7.61539C9.26769 0.392857 10.6071 1.73231 10.6071 3.38462V7.61539C10.6071 9.26769 9.26769 10.6071 7.61539 10.6071H3.38462C1.73231 10.6071 0.392857 9.26769 0.392857 7.61539V3.38462Z" fill="white"/>
<path d="M0.392857 3.38462C0.392857 1.73231 1.73231 0.392857 3.38462 0.392857H7.61539C9.26769 0.392857 10.6071 1.73231 10.6071 3.38462V7.61539C10.6071 9.26769 9.26769 10.6071 7.61539 10.6071H3.38462C1.73231 10.6071 0.392857 9.26769 0.392857 7.61539V3.38462Z" stroke="#00AD59" stroke-width="0.785714"/>
<path fill-rule="evenodd" clip-rule="evenodd" d="M3.47437 5.5C3.47437 5.35761 3.58979 5.24219 3.73218 5.24219H7.26789C7.41028 5.24219 7.5257 5.35761 7.5257 5.5C7.5257 5.64239 7.41028 5.75781 7.26789 5.75781H3.73218C3.58979 5.75781 3.47437 5.64239 3.47437 5.5Z" fill="#003746"/>
<path d="M9.74359 108.073C9.08443 108.073 8.45763 108.324 7.99975 108.761C7.54282 109.198 7.29167 109.784 7.29167 110.389C7.29167 110.735 7.01184 111.014 6.66667 111.014C6.32149 111.014 6.04167 110.735 6.04167 110.389C6.04167 109.434 6.43888 108.524 7.13602 107.858C7.83221 107.192 8.77065 106.823 9.74359 106.823H10.2564C11.2294 106.823 12.1678 107.192 12.864 107.858C13.5611 108.524 13.9583 109.434 13.9583 110.389C13.9583 111.345 13.5611 112.255 12.864 112.921C12.1946 113.561 11.3012 113.927 10.3686 113.954V115.291C10.3686 115.637 10.0888 115.916 9.74359 115.916C9.39841 115.916 9.11859 115.637 9.11859 115.291V113.821C9.11859 113.516 9.24569 113.229 9.46194 113.022C9.67725 112.817 9.96349 112.706 10.2564 112.706C10.9156 112.706 11.5424 112.455 12.0003 112.017C12.4572 111.581 12.7083 110.994 12.7083 110.389C12.7083 109.784 12.4572 109.198 12.0003 108.761C11.5424 108.324 10.9156 108.073 10.2564 108.073H9.74359Z" fill="#003746"/>
<path d="M10.5599 118.208C10.5599 118.901 10.4124 119.042 9.72657 119.042C9.04074 119.042 8.89324 118.901 8.89324 118.208C8.89324 117.516 9.04074 117.375 9.72657 117.375C10.4124 117.375 10.5599 117.516 10.5599 118.208Z" fill="#003746"/>
<path fill-rule="evenodd" clip-rule="evenodd" d="M0 113C0 120.276 1.77053 121.75 10 121.75C18.2289 121.75 20 120.276 20 113C20 105.724 18.2295 104.25 10 104.25C1.77053 104.25 0 105.724 0 113ZM5.19943 120.178C6.40537 120.408 7.96522 120.5 10 120.5C12.0346 120.5 13.5944 120.408 14.8003 120.178C16.0007 119.95 16.7572 119.602 17.2662 119.16C18.2661 118.291 18.75 116.667 18.75 113C18.75 109.333 18.2663 107.709 17.2663 106.84C16.7574 106.398 16.001 106.05 14.8006 105.822C13.5946 105.592 12.0348 105.5 10 105.5C7.96522 105.5 6.40537 105.592 5.19943 105.822C3.999 106.05 3.24262 106.398 2.73366 106.84C1.73375 107.709 1.25 109.333 1.25 113C1.25 116.667 1.73375 118.291 2.73366 119.16C3.24262 119.602 3.999 119.95 5.19943 120.178Z" fill="#003746"/>
<path d="M39.7436 108.073C39.0844 108.073 38.4576 108.324 37.9997 108.761C37.5428 109.198 37.2917 109.784 37.2917 110.389C37.2917 110.735 37.0118 111.014 36.6667 111.014C36.3215 111.014 36.0417 110.735 36.0417 110.389C36.0417 109.434 36.4389 108.524 37.136 107.858C37.8322 107.192 38.7706 106.823 39.7436 106.823H40.2564C41.2294 106.823 42.1678 107.192 42.864 107.858C43.5611 108.524 43.9583 109.434 43.9583 110.389C43.9583 111.345 43.5611 112.255 42.864 112.921C42.1946 113.561 41.3012 113.927 40.3686 113.954V115.291C40.3686 115.637 40.0888 115.916 39.7436 115.916C39.3984 115.916 39.1186 115.637 39.1186 115.291V113.821C39.1186 113.516 39.2457 113.229 39.4619 113.022C39.6772 112.817 39.9635 112.706 40.2564 112.706C40.9156 112.706 41.5424 112.455 42.0003 112.017C42.4572 111.581 42.7083 110.994 42.7083 110.389C42.7083 109.784 42.4572 109.198 42.0003 108.761C41.5424 108.324 40.9156 108.073 40.2564 108.073H39.7436Z" fill="#005162"/>
<path d="M40.5599 118.208C40.5599 118.901 40.4124 119.042 39.7266 119.042C39.0407 119.042 38.8932 118.901 38.8932 118.208C38.8932 117.516 39.0407 117.375 39.7266 117.375C40.4124 117.375 40.5599 117.516 40.5599 118.208Z" fill="#005162"/>
<path fill-rule="evenodd" clip-rule="evenodd" d="M30 113C30 120.276 31.7705 121.75 40 121.75C48.2289 121.75 50 120.276 50 113C50 105.724 48.2295 104.25 40 104.25C31.7705 104.25 30 105.724 30 113ZM35.1994 120.178C36.4054 120.408 37.9652 120.5 40 120.5C42.0346 120.5 43.5944 120.408 44.8003 120.178C46.0007 119.95 46.7572 119.602 47.2662 119.16C48.2661 118.291 48.75 116.667 48.75 113C48.75 109.333 48.2663 107.709 47.2663 106.84C46.7574 106.398 46.001 106.05 44.8006 105.822C43.5946 105.592 42.0348 105.5 40 105.5C37.9652 105.5 36.4054 105.592 35.1994 105.822C33.999 106.05 33.2426 106.398 32.7337 106.84C31.7337 107.709 31.25 109.333 31.25 113C31.25 116.667 31.7337 118.291 32.7337 119.16C33.2426 119.602 33.999 119.95 35.1994 120.178Z" fill="#005162"/>
<path d="M43.2188 139.613C43.2188 139.25 43.5126 138.956 43.875 138.956H45.625C45.9874 138.956 46.2812 139.25 46.2812 139.613C46.2812 139.975 45.9874 140.269 45.625 140.269H43.875C43.5126 140.269 43.2188 139.975 43.2188 139.613Z" fill="#005162"/>
<path d="M33.8125 143.952C33.4501 143.952 33.1562 144.246 33.1562 144.608C33.1562 144.971 33.4501 145.265 33.8125 145.265H45.1875C45.5499 145.265 45.8438 144.971 45.8438 144.608C45.8438 144.246 45.5499 143.952 45.1875 143.952H33.8125Z" fill="#005162"/>
<path fill-rule="evenodd" clip-rule="evenodd" d="M36.4543 128.456C34.8617 128.456 33.5938 129.771 33.5938 131.363V134.632C32.0528 135.023 30.8771 135.681 30.0998 136.776C29.304 137.897 29 139.374 29 141.222C29 142.618 29.177 143.799 29.6062 144.775C30.043 145.768 30.7263 146.515 31.6711 147.057C32.5995 147.589 33.7597 147.91 35.145 148.103C36.5331 148.296 38.1877 148.364 40.1284 148.364C42.0672 148.364 43.6479 148.296 44.9238 148.102C46.1971 147.908 47.2221 147.581 48.01 147.023C49.6433 145.867 50 143.92 50 141.222C50 139.231 49.8206 137.652 49.0785 136.496C48.3376 135.343 47.1254 134.734 45.4062 134.415V131.363C45.4062 129.771 44.1383 128.456 42.5457 128.456H36.4543ZM45.4062 135.753V136.55C45.4062 136.912 45.1124 137.206 44.75 137.206H34.25C33.8876 137.206 33.5938 136.912 33.5938 136.55V135.992C32.4219 136.337 31.6627 136.841 31.17 137.535C30.6029 138.334 30.3125 139.49 30.3125 141.222C30.3125 142.522 30.4796 143.5 30.8076 144.246C31.1282 144.975 31.6154 145.512 32.3237 145.918C33.0484 146.333 34.0238 146.622 35.3257 146.803C36.6249 146.984 38.2092 147.052 40.1284 147.052C42.0494 147.052 43.5505 146.983 44.7262 146.804C45.9045 146.625 46.7009 146.342 47.2519 145.952C48.2964 145.213 48.6875 143.917 48.6875 141.222C48.6875 139.238 48.4906 138.01 47.9741 137.206C47.5353 136.522 46.7949 136.045 45.4062 135.753ZM34.9062 131.363C34.9062 130.47 35.6123 129.769 36.4543 129.769H42.5457C43.3877 129.769 44.0938 130.47 44.0938 131.363V135.894H34.9062V131.363Z" fill="#005162"/>
<path d="M14.2188 139.613C14.2188 139.25 14.5126 138.956 14.875 138.956H16.625C16.9874 138.956 17.2812 139.25 17.2812 139.613C17.2812 139.975 16.9874 140.269 16.625 140.269H14.875C14.5126 140.269 14.2188 139.975 14.2188 139.613Z" fill="#003746"/>
<path d="M4.8125 143.952C4.45006 143.952 4.15625 144.246 4.15625 144.608C4.15625 144.971 4.45006 145.265 4.8125 145.265H16.1875C16.5499 145.265 16.8438 144.971 16.8438 144.608C16.8438 144.246 16.5499 143.952 16.1875 143.952H4.8125Z" fill="#003746"/>
<path fill-rule="evenodd" clip-rule="evenodd" d="M7.45433 128.456C5.86167 128.456 4.59375 129.771 4.59375 131.363V134.632C3.05276 135.023 1.87712 135.681 1.09976 136.776C0.304034 137.897 0 139.374 0 141.222C0 142.618 0.176983 143.799 0.606226 144.775C1.04298 145.768 1.72634 146.515 2.6711 147.057C3.59952 147.589 4.75967 147.91 6.14501 148.103C7.53307 148.296 9.18766 148.364 11.1284 148.364C13.0672 148.364 14.6479 148.296 15.9238 148.102C17.1971 147.908 18.2221 147.581 19.01 147.023C20.6433 145.867 21 143.92 21 141.222C21 139.231 20.8206 137.652 20.0785 136.496C19.3376 135.343 18.1254 134.734 16.4062 134.415V131.363C16.4062 129.771 15.1383 128.456 13.5457 128.456H7.45433ZM16.4062 135.753V136.55C16.4062 136.912 16.1124 137.206 15.75 137.206H5.25C4.88756 137.206 4.59375 136.912 4.59375 136.55V135.992C3.42193 136.337 2.66275 136.841 2.17 137.535C1.60292 138.334 1.3125 139.49 1.3125 141.222C1.3125 142.522 1.47957 143.5 1.80765 144.246C2.12821 144.975 2.61544 145.512 3.32374 145.918C4.04839 146.333 5.02378 146.622 6.32569 146.803C7.62487 146.984 9.20922 147.052 11.1284 147.052C13.0494 147.052 14.5505 146.983 15.7262 146.804C16.9045 146.625 17.7009 146.342 18.2519 145.952C19.2964 145.213 19.6875 143.917 19.6875 141.222C19.6875 139.238 19.4906 138.01 18.9741 137.206C18.5353 136.522 17.7949 136.045 16.4062 135.753ZM5.90625 131.363C5.90625 130.47 6.61229 129.769 7.45433 129.769H13.5457C14.3877 129.769 15.0938 130.47 15.0938 131.363V135.894H5.90625V131.363Z" fill="#003746"/>
<path fill-rule="evenodd" clip-rule="evenodd" d="M39.0181 153.937C39.2404 153.702 39.6112 153.691 39.8464 153.913L43.3752 157.248C44.0168 157.854 44.0168 158.86 43.3752 159.466L39.8464 162.801C39.6112 163.023 39.2404 163.013 39.0181 162.777C38.7958 162.542 38.8063 162.171 39.0415 161.949L42.5704 158.614C42.7226 158.471 42.7226 158.244 42.5704 158.1L39.0415 154.765C38.8063 154.543 38.7958 154.172 39.0181 153.937Z" fill="#005162"/>
<path fill-rule="evenodd" clip-rule="evenodd" d="M43.3039 153.937C43.5261 153.702 43.897 153.691 44.1322 153.913L47.661 157.248C48.3026 157.854 48.3026 158.86 47.661 159.466L44.1322 162.801C43.897 163.023 43.5261 163.013 43.3039 162.777C43.0816 162.542 43.0921 162.171 43.3273 161.949L46.8561 158.614C47.0084 158.471 47.0084 158.244 46.8561 158.1L43.3273 154.765C43.0921 154.543 43.0816 154.172 43.3039 153.937Z" fill="#005162"/>
<path fill-rule="evenodd" clip-rule="evenodd" d="M39.8168 443.874C40.0242 443.655 40.3703 443.645 40.5898 443.853L43.8834 446.965C44.4822 447.531 44.4822 448.469 43.8834 449.035L40.5898 452.147C40.3703 452.355 40.0242 452.345 39.8168 452.126C39.6093 451.906 39.6191 451.56 39.8386 451.353L43.1322 448.24C43.2743 448.106 43.2743 447.894 43.1322 447.76L39.8386 444.647C39.6191 444.44 39.6093 444.094 39.8168 443.874Z" fill="#005162"/>
<path fill-rule="evenodd" clip-rule="evenodd" d="M43.8168 443.874C44.0242 443.655 44.3703 443.645 44.5898 443.853L47.8834 446.965C48.4822 447.531 48.4822 448.469 47.8834 449.035L44.5898 452.147C44.3703 452.355 44.0242 452.345 43.8168 452.126C43.6093 451.906 43.6191 451.56 43.8386 451.353L47.1322 448.24C47.2743 448.106 47.2743 447.894 47.1322 447.76L43.8386 444.647C43.6191 444.44 43.6093 444.094 43.8168 443.874Z" fill="#005162"/>
<path fill-rule="evenodd" clip-rule="evenodd" d="M36.4265 392.374C36.7525 392.029 37.2964 392.014 37.6414 392.34L42.817 397.23C43.758 398.12 43.758 399.595 42.817 400.484L37.6414 405.375C37.2964 405.701 36.7525 405.685 36.4265 405.34C36.1006 404.995 36.1159 404.451 36.4609 404.125L41.6365 399.235C41.8598 399.024 41.8598 398.691 41.6365 398.48L36.4609 393.589C36.1159 393.263 36.1006 392.719 36.4265 392.374Z" fill="#005162"/>
<path fill-rule="evenodd" clip-rule="evenodd" d="M42.7123 392.374C43.0383 392.029 43.5822 392.014 43.9272 392.34L49.1028 397.23C50.0438 398.12 50.0438 399.595 49.1028 400.484L43.9272 405.375C43.5822 405.701 43.0383 405.685 42.7123 405.34C42.3863 404.995 42.4017 404.451 42.7467 404.125L47.9223 399.235C48.1456 399.024 48.1456 398.691 47.9223 398.48L42.7467 393.589C42.4017 393.263 42.3863 392.719 42.7123 392.374Z" fill="#005162"/>
<path fill-rule="evenodd" clip-rule="evenodd" d="M39.8168 464.874C40.0242 464.655 40.3703 464.645 40.5898 464.853L43.8834 467.965C44.4822 468.531 44.4822 469.469 43.8834 470.035L40.5898 473.147C40.3703 473.355 40.0242 473.345 39.8168 473.126C39.6093 472.906 39.6191 472.56 39.8386 472.353L43.1322 469.24C43.2743 469.106 43.2743 468.894 43.1322 468.76L39.8386 465.647C39.6191 465.44 39.6093 465.094 39.8168 464.874Z" fill="#005162"/>
<path fill-rule="evenodd" clip-rule="evenodd" d="M43.8168 464.874C44.0242 464.655 44.3703 464.645 44.5898 464.853L47.8834 467.965C48.4822 468.531 48.4822 469.469 47.8834 470.035L44.5898 473.147C44.3703 473.355 44.0242 473.345 43.8168 473.126C43.6093 472.906 43.6191 472.56 43.8386 472.353L47.1322 469.24C47.2743 469.106 47.2743 468.894 47.1322 468.76L43.8386 465.647C43.6191 465.44 43.6093 465.094 43.8168 464.874Z" fill="#005162"/>
<path fill-rule="evenodd" clip-rule="evenodd" d="M39.8168 484.874C40.0242 484.655 40.3703 484.645 40.5898 484.853L43.8834 487.965C44.4822 488.531 44.4822 489.469 43.8834 490.035L40.5898 493.147C40.3703 493.355 40.0242 493.345 39.8168 493.126C39.6093 492.906 39.6191 492.56 39.8386 492.353L43.1322 489.24C43.2743 489.106 43.2743 488.894 43.1322 488.76L39.8386 485.647C39.6191 485.44 39.6093 485.094 39.8168 484.874Z" fill="#005162"/>
<path fill-rule="evenodd" clip-rule="evenodd" d="M43.8168 484.874C44.0242 484.655 44.3703 484.645 44.5898 484.853L47.8834 487.965C48.4822 488.531 48.4822 489.469 47.8834 490.035L44.5898 493.147C44.3703 493.355 44.0242 493.345 43.8168 493.126C43.6093 492.906 43.6191 492.56 43.8386 492.353L47.1322 489.24C47.2743 489.106 47.2743 488.894 47.1322 488.76L43.8386 485.647C43.6191 485.44 43.6093 485.094 43.8168 484.874Z" fill="#005162"/>
<path fill-rule="evenodd" clip-rule="evenodd" d="M39.8168 504.874C40.0242 504.655 40.3703 504.645 40.5898 504.853L43.8834 507.965C44.4822 508.531 44.4822 509.469 43.8834 510.035L40.5898 513.147C40.3703 513.355 40.0242 513.345 39.8168 513.126C39.6093 512.906 39.6191 512.56 39.8386 512.353L43.1322 509.24C43.2743 509.106 43.2743 508.894 43.1322 508.76L39.8386 505.647C39.6191 505.44 39.6093 505.094 39.8168 504.874Z" fill="#005162"/>
<path fill-rule="evenodd" clip-rule="evenodd" d="M43.8168 504.874C44.0242 504.655 44.3703 504.645 44.5898 504.853L47.8834 507.965C48.4822 508.531 48.4822 509.469 47.8834 510.035L44.5898 513.147C44.3703 513.355 44.0242 513.345 43.8168 513.126C43.6093 512.906 43.6191 512.56 43.8386 512.353L47.1322 509.24C47.2743 509.106 47.2743 508.894 47.1322 508.76L43.8386 505.647C43.6191 505.44 43.6093 505.094 43.8168 504.874Z" fill="#005162"/>
<path fill-rule="evenodd" clip-rule="evenodd" d="M36.254 14.246C40.6161 18.6061 42.4292 18.5616 46.7458 14.246C51.061 9.93037 51.1084 8.11428 46.7458 3.75417C42.3832 -0.605932 40.5691 -0.563465 36.254 3.75417C31.9388 8.07181 31.8919 9.8859 36.254 14.246ZM41.4999 4.14266C41.8352 4.14258 42.1071 4.41434 42.1071 4.74966L42.1085 10.4163C42.1086 10.7516 41.8368 11.0235 41.5015 11.0236C41.1662 11.0237 40.8943 10.7519 40.8942 10.4166L40.8929 4.74995C40.8928 4.41463 41.1645 4.14274 41.4999 4.14266ZM41.5 13.6042C42.0829 13.6042 42.2083 13.4847 42.2083 12.8958C42.2083 12.307 42.0829 12.1875 41.5 12.1875C40.917 12.1875 40.7917 12.307 40.7917 12.8958C40.7917 13.4847 40.917 13.6042 41.5 13.6042Z" fill="#FF1B44"/>
<path fill-rule="evenodd" clip-rule="evenodd" d="M40.2969 32.7031C43.3761 35.7808 44.6559 35.7494 47.7029 32.7031C50.7489 29.6567 50.7824 28.3748 47.7029 25.2971C44.6234 22.2193 43.3429 22.2493 40.2969 25.2971C37.251 28.3448 37.2178 29.6253 40.2969 32.7031ZM43.9999 25.5713C44.2366 25.5712 44.4285 25.7631 44.4286 25.9998L44.4295 29.9998C44.4296 30.2365 44.2377 30.4284 44.001 30.4284C43.7644 30.4285 43.5724 30.2367 43.5724 30L43.5714 26C43.5714 25.7633 43.7632 25.5713 43.9999 25.5713ZM44 32.25C44.4115 32.25 44.5 32.1657 44.5 31.75C44.5 31.3343 44.4115 31.25 44 31.25C43.5885 31.25 43.5 31.3343 43.5 31.75C43.5 32.1657 43.5885 32.25 44 32.25Z" fill="#FF1B44"/>
</svg>
