<svg width="380" height="256" viewBox="0 0 380 256" fill="none" xmlns="http://www.w3.org/2000/svg">
<path fill-rule="evenodd" clip-rule="evenodd" d="M28.0097 48C14.1972 48 3 59.1972 3 73.0097V136.56C3 150.372 14.1972 161.569 28.0097 161.569H179.49C193.303 161.569 204.5 150.372 204.5 136.56V73.0097C204.5 59.1972 193.303 48 179.49 48H28.0097ZM181.981 73.6447C180.254 73.6447 178.855 75.0444 178.855 76.7709V136.462C178.855 138.189 180.254 139.588 181.981 139.588H190.383C192.109 139.588 193.509 138.189 193.509 136.462V76.7709C193.509 75.0444 192.109 73.6447 190.383 73.6447H181.981Z" fill="#005162"/>
<path d="M39.6392 120.62C39.6392 124.657 36.3586 127.93 32.3119 127.93C28.2652 127.93 24.9846 124.657 24.9846 120.62C24.9846 116.584 28.2652 113.311 32.3119 113.311C36.3586 113.311 39.6392 116.584 39.6392 120.62Z" fill="#FFF6F3"/>
<path d="M68.9643 120.62C68.9643 124.657 65.6838 127.93 61.6371 127.93C57.5903 127.93 54.3098 124.657 54.3098 120.62C54.3098 116.584 57.5903 113.311 61.6371 113.311C65.6838 113.311 68.9643 116.584 68.9643 120.62Z" fill="#FFF6F3"/>
<path d="M68.9644 142.602C68.9644 146.638 65.6838 149.911 61.6371 149.911C57.5903 149.911 54.3098 146.638 54.3098 142.602C54.3098 138.565 57.5903 135.292 61.6371 135.292C65.6838 135.292 68.9644 138.565 68.9644 142.602Z" fill="#FFF6F3"/>
<path d="M39.6392 142.602C39.6392 146.638 36.3586 149.911 32.3119 149.911C28.2652 149.911 24.9846 146.638 24.9846 142.602C24.9846 138.565 28.2652 135.292 32.3119 135.292C36.3586 135.292 39.6392 138.565 39.6392 142.602Z" fill="#FFF6F3"/>
<path d="M98.2565 120.62C98.2565 124.657 94.9759 127.93 90.9292 127.93C86.8825 127.93 83.6019 124.657 83.6019 120.62C83.6019 116.584 86.8825 113.311 90.9292 113.311C94.9759 113.311 98.2565 116.584 98.2565 120.62Z" fill="#FFF6F3"/>
<path d="M98.2565 142.602C98.2565 146.638 94.9759 149.911 90.9292 149.911C86.8825 149.911 83.6019 146.638 83.6019 142.602C83.6019 138.565 86.8825 135.292 90.9292 135.292C94.9759 135.292 98.2565 138.565 98.2565 142.602Z" fill="#FFF6F3"/>
<path d="M127.58 120.62C127.58 124.657 124.299 127.93 120.252 127.93C116.206 127.93 112.925 124.657 112.925 120.62C112.925 116.584 116.206 113.311 120.252 113.311C124.299 113.311 127.58 116.584 127.58 120.62Z" fill="#FFF6F3"/>
<path d="M127.58 142.602C127.58 146.638 124.299 149.911 120.252 149.911C116.206 149.911 112.925 146.638 112.925 142.602C112.925 138.565 116.206 135.292 120.252 135.292C124.299 135.292 127.58 138.565 127.58 142.602Z" fill="#FFF6F3"/>
<path d="M156.872 120.62C156.872 124.657 153.591 127.93 149.545 127.93C145.498 127.93 142.217 124.657 142.217 120.62C142.217 116.584 145.498 113.311 149.545 113.311C153.591 113.311 156.872 116.584 156.872 120.62Z" fill="#FFF6F3"/>
<path d="M156.872 142.602C156.872 146.638 153.591 149.911 149.545 149.911C145.498 149.911 142.217 146.638 142.217 142.602C142.217 138.565 145.498 135.292 149.545 135.292C153.591 135.292 156.872 138.565 156.872 142.602Z" fill="#FF1B44"/>
<path d="M23.0178 75.5137C23.0178 70.334 27.2168 66.1351 32.3965 66.1351H152.857C158.037 66.1351 162.236 70.334 162.236 75.5137V93.3917C162.236 98.5714 158.037 102.77 152.857 102.77H32.3965C27.2168 102.77 23.0178 98.5714 23.0178 93.3917V75.5137Z" fill="#E5FBFF"/>
<path d="M338.5 57C327 51.5 327 46 327 46V180C327 180 327 174.5 338.5 169C350 163.5 348 153 348 153V73C348 73 350 62.5 338.5 57Z" fill="#450A27"/>
<path d="M337.321 110.421C337.047 110.421 336.796 110.526 336.618 110.695C336.442 110.863 336.354 111.079 336.354 111.293C336.354 111.949 335.823 112.48 335.167 112.48C334.511 112.48 333.979 111.949 333.979 111.293C333.979 110.414 334.345 109.583 334.977 108.979C335.607 108.376 336.451 108.046 337.321 108.046H337.679C338.549 108.046 339.393 108.376 340.023 108.979C340.655 109.583 341.021 110.414 341.021 111.293C341.021 112.172 340.655 113.003 340.023 113.607C339.596 114.015 339.072 114.298 338.508 114.438V114.724C338.508 115.075 338.355 115.391 338.113 115.609C338.18 115.648 338.246 115.698 338.309 115.76C338.485 115.935 338.563 116.141 338.6 116.308C338.636 116.466 338.642 116.628 338.642 116.766C338.642 116.904 338.636 117.066 338.6 117.224C338.563 117.391 338.485 117.597 338.309 117.772C338.133 117.947 337.927 118.023 337.762 118.059C337.605 118.093 337.444 118.099 337.309 118.099C337.173 118.099 337.012 118.093 336.855 118.059C336.69 118.023 336.485 117.947 336.308 117.772C336.132 117.597 336.054 117.391 336.017 117.224C335.982 117.066 335.975 116.904 335.975 116.766C335.975 116.628 335.982 116.466 336.017 116.308C336.054 116.141 336.132 115.935 336.308 115.76C336.376 115.694 336.447 115.641 336.519 115.6C336.282 115.383 336.133 115.071 336.133 114.724V113.695C336.133 113.271 336.31 112.876 336.605 112.594C336.899 112.313 337.286 112.164 337.679 112.164C337.953 112.164 338.204 112.06 338.382 111.89C338.558 111.722 338.646 111.506 338.646 111.293C338.646 111.079 338.558 110.863 338.382 110.695M337.321 110.421L338.382 110.695M337.321 110.421H337.679C337.953 110.421 338.204 110.526 338.382 110.695M337.321 110.421L338.382 110.695M337.5 118.375C336.073 118.375 334.972 118.31 334.116 118.147C333.264 117.985 332.711 117.735 332.332 117.406C331.585 116.757 331.25 115.564 331.25 113C331.25 110.436 331.585 109.243 332.332 108.594C332.711 108.265 333.264 108.015 334.116 107.853C334.972 107.69 336.073 107.625 337.5 107.625C338.927 107.625 340.028 107.69 340.884 107.853C341.736 108.015 342.289 108.265 342.668 108.594C343.415 109.243 343.75 110.436 343.75 113C343.75 115.564 343.415 116.757 342.668 117.406C342.289 117.735 341.736 117.985 340.884 118.147C340.028 118.31 338.927 118.375 337.5 118.375Z" fill="white" stroke="white" stroke-width="1.5" stroke-miterlimit="10" stroke-linecap="round"/>
<path d="M364.433 56C352.933 50.5 352.933 45 352.933 45V179C352.933 179 352.933 173.5 364.433 168C375.933 162.5 373.933 152 373.933 152V72C373.933 72 375.933 61.5 364.433 56Z" fill="#450A27"/>
<path fill-rule="evenodd" clip-rule="evenodd" d="M356.5 112C356.5 117.093 357.739 118.125 363.5 118.125C369.26 118.125 370.5 117.093 370.5 112C370.5 106.907 369.26 105.875 363.5 105.875C357.739 105.875 356.5 106.907 356.5 112ZM365.074 116.255C365.25 116.421 365.527 116.414 365.693 116.238C365.859 116.062 365.851 115.785 365.675 115.62L362.217 112.352C362.011 112.157 362.011 111.843 362.217 111.648L365.675 108.38C365.851 108.215 365.859 107.938 365.693 107.762C365.527 107.586 365.25 107.579 365.074 107.745L361.616 111.012C361.044 111.553 361.044 112.447 361.616 112.988L365.074 116.255Z" fill="white"/>
<path fill-rule="evenodd" clip-rule="evenodd" d="M281.427 169.374C281.753 169.029 282.296 169.014 282.641 169.34L287.817 174.23C288.758 175.12 288.758 176.595 287.817 177.484L282.641 182.375C282.296 182.701 281.753 182.685 281.427 182.34C281.101 181.995 281.116 181.451 281.461 181.125L286.637 176.235C286.86 176.024 286.86 175.691 286.637 175.48L281.461 170.589C281.116 170.263 281.101 169.719 281.427 169.374Z" fill="#005162"/>
<path fill-rule="evenodd" clip-rule="evenodd" d="M287.712 169.374C288.038 169.029 288.582 169.014 288.927 169.34L294.103 174.23C295.044 175.12 295.044 176.595 294.103 177.484L288.927 182.375C288.582 182.701 288.038 182.685 287.712 182.34C287.386 181.995 287.402 181.451 287.747 181.125L292.922 176.235C293.146 176.024 293.146 175.691 292.922 175.48L287.747 170.589C287.402 170.263 287.386 169.719 287.712 169.374Z" fill="#005162"/>
<path d="M255.744 115.073C255.084 115.073 254.458 115.324 254 115.761C253.543 116.198 253.292 116.784 253.292 117.389C253.292 117.735 253.012 118.014 252.667 118.014C252.321 118.014 252.042 117.735 252.042 117.389C252.042 116.434 252.439 115.524 253.136 114.858C253.832 114.192 254.771 113.823 255.744 113.823H256.256C257.229 113.823 258.168 114.192 258.864 114.858C259.561 115.524 259.958 116.434 259.958 117.389C259.958 118.345 259.561 119.255 258.864 119.921C258.195 120.561 257.301 120.927 256.369 120.954V122.291C256.369 122.637 256.089 122.916 255.744 122.916C255.398 122.916 255.119 122.637 255.119 122.291V120.821C255.119 120.516 255.246 120.229 255.462 120.022C255.677 119.817 255.963 119.706 256.256 119.706C256.916 119.706 257.542 119.455 258 119.017C258.457 118.581 258.708 117.994 258.708 117.389C258.708 116.784 258.457 116.198 258 115.761C257.542 115.324 256.916 115.073 256.256 115.073H255.744Z" fill="#005162"/>
<path d="M256.56 125.208C256.56 125.901 256.412 126.042 255.727 126.042C255.041 126.042 254.893 125.901 254.893 125.208C254.893 124.516 255.041 124.375 255.727 124.375C256.412 124.375 256.56 124.516 256.56 125.208Z" fill="#005162"/>
<path fill-rule="evenodd" clip-rule="evenodd" d="M246 120C246 127.276 247.771 128.75 256 128.75C264.229 128.75 266 127.276 266 120C266 112.724 264.229 111.25 256 111.25C247.771 111.25 246 112.724 246 120ZM251.199 127.178C252.405 127.408 253.965 127.5 256 127.5C258.035 127.5 259.594 127.408 260.8 127.178C262.001 126.95 262.757 126.602 263.266 126.16C264.266 125.291 264.75 123.667 264.75 120C264.75 116.333 264.266 114.709 263.266 113.84C262.757 113.398 262.001 113.05 260.801 112.822C259.595 112.592 258.035 112.5 256 112.5C253.965 112.5 252.405 112.592 251.199 112.822C249.999 113.05 249.243 113.398 248.734 113.84C247.734 114.709 247.25 116.333 247.25 120C247.25 123.667 247.734 125.291 248.734 126.16C249.243 126.602 249.999 126.95 251.199 127.178Z" fill="#005162"/>
<path d="M225.744 115.073C225.084 115.073 224.458 115.324 224 115.761C223.543 116.198 223.292 116.784 223.292 117.389C223.292 117.735 223.012 118.014 222.667 118.014C222.321 118.014 222.042 117.735 222.042 117.389C222.042 116.434 222.439 115.524 223.136 114.858C223.832 114.192 224.771 113.823 225.744 113.823H226.256C227.229 113.823 228.168 114.192 228.864 114.858C229.561 115.524 229.958 116.434 229.958 117.389C229.958 118.345 229.561 119.255 228.864 119.921C228.195 120.561 227.301 120.927 226.369 120.954V122.291C226.369 122.637 226.089 122.916 225.744 122.916C225.398 122.916 225.119 122.637 225.119 122.291V120.821C225.119 120.516 225.246 120.229 225.462 120.022C225.677 119.817 225.963 119.706 226.256 119.706C226.916 119.706 227.542 119.455 228 119.017C228.457 118.581 228.708 117.994 228.708 117.389C228.708 116.784 228.457 116.198 228 115.761C227.542 115.324 226.916 115.073 226.256 115.073H225.744Z" fill="#003746"/>
<path d="M226.56 125.208C226.56 125.901 226.412 126.042 225.727 126.042C225.041 126.042 224.893 125.901 224.893 125.208C224.893 124.516 225.041 124.375 225.727 124.375C226.412 124.375 226.56 124.516 226.56 125.208Z" fill="#003746"/>
<path fill-rule="evenodd" clip-rule="evenodd" d="M216 120C216 127.276 217.771 128.75 226 128.75C234.229 128.75 236 127.276 236 120C236 112.724 234.229 111.25 226 111.25C217.771 111.25 216 112.724 216 120ZM221.199 127.178C222.405 127.408 223.965 127.5 226 127.5C228.035 127.5 229.594 127.408 230.8 127.178C232.001 126.95 232.757 126.602 233.266 126.16C234.266 125.291 234.75 123.667 234.75 120C234.75 116.333 234.266 114.709 233.266 113.84C232.757 113.398 232.001 113.05 230.801 112.822C229.595 112.592 228.035 112.5 226 112.5C223.965 112.5 222.405 112.592 221.199 112.822C219.999 113.05 219.243 113.398 218.734 113.84C217.734 114.709 217.25 116.333 217.25 120C217.25 123.667 217.734 125.291 218.734 126.16C219.243 126.602 219.999 126.95 221.199 127.178Z" fill="#003746"/>
<path d="M275.167 121.042C274.822 121.042 274.542 121.321 274.542 121.667C274.542 122.012 274.822 122.292 275.167 122.292H277.111C277.456 122.292 277.736 122.012 277.736 121.667C277.736 121.321 277.456 121.042 277.111 121.042H275.167Z" fill="#003746"/>
<path d="M274.542 124.583C274.542 124.238 274.822 123.958 275.167 123.958H277.111C277.456 123.958 277.736 124.238 277.736 124.583C277.736 124.929 277.456 125.208 277.111 125.208H275.167C274.822 125.208 274.542 124.929 274.542 124.583Z" fill="#003746"/>
<path d="M280.028 121.042C279.683 121.042 279.403 121.321 279.403 121.667C279.403 122.012 279.683 122.292 280.028 122.292H281.972C282.317 122.292 282.597 122.012 282.597 121.667C282.597 121.321 282.317 121.042 281.972 121.042H280.028Z" fill="#003746"/>
<path d="M279.403 124.583C279.403 124.238 279.683 123.958 280.028 123.958H281.972C282.317 123.958 282.597 124.238 282.597 124.583C282.597 124.929 282.317 125.208 281.972 125.208H280.028C279.683 125.208 279.403 124.929 279.403 124.583Z" fill="#003746"/>
<path d="M284.889 121.042C284.544 121.042 284.264 121.321 284.264 121.667C284.264 122.012 284.544 122.292 284.889 122.292H286.833C287.179 122.292 287.458 122.012 287.458 121.667C287.458 121.321 287.179 121.042 286.833 121.042H284.889Z" fill="#003746"/>
<path d="M284.264 124.583C284.264 124.238 284.544 123.958 284.889 123.958H286.833C287.179 123.958 287.458 124.238 287.458 124.583C287.458 124.929 287.179 125.208 286.833 125.208H284.889C284.544 125.208 284.264 124.929 284.264 124.583Z" fill="#003746"/>
<path fill-rule="evenodd" clip-rule="evenodd" d="M285.762 110.833C286.107 110.833 286.387 111.113 286.387 111.458V113.127C286.454 113.137 286.519 113.147 286.584 113.157C287.713 113.343 288.613 113.669 289.285 114.265C289.966 114.869 290.336 115.682 290.54 116.683C290.742 117.672 290.792 118.9 290.792 120.392V121.592C290.792 123.074 290.741 124.302 290.54 125.298C290.337 126.304 289.968 127.128 289.292 127.747C288.623 128.358 287.724 128.704 286.591 128.903C285.46 129.103 284.034 129.167 282.255 129.167H279.697C277.906 129.167 276.476 129.103 275.348 128.903C274.217 128.704 273.323 128.358 272.662 127.743C271.994 127.122 271.638 126.297 271.444 125.292C271.253 124.299 271.208 123.072 271.208 121.592V120.392C271.208 118.899 271.262 117.67 271.466 116.681C271.674 115.68 272.047 114.868 272.727 114.265C273.398 113.67 274.295 113.343 275.415 113.158C275.48 113.147 275.546 113.136 275.613 113.126V111.458C275.613 111.113 275.893 110.833 276.238 110.833C276.583 110.833 276.863 111.113 276.863 111.458V112.995C277.688 112.937 278.629 112.917 279.697 112.917H282.255C283.343 112.917 284.3 112.937 285.137 112.996V111.458C285.137 111.113 285.417 110.833 285.762 110.833ZM275.613 114.392V114.792C275.613 115.137 275.893 115.417 276.238 115.417C276.583 115.417 276.863 115.137 276.863 114.792V114.248C277.657 114.189 278.593 114.167 279.697 114.167H282.255C283.38 114.167 284.331 114.189 285.137 114.249V114.792C285.137 115.137 285.417 115.417 285.762 115.417C286.107 115.417 286.387 115.137 286.387 114.792V114.392C287.404 114.56 288.036 114.829 288.456 115.2C288.866 115.564 289.144 116.091 289.315 116.933C289.351 117.11 289.382 117.299 289.409 117.5H272.596C272.622 117.3 272.654 117.111 272.69 116.934C272.865 116.093 273.145 115.565 273.557 115.2C273.976 114.828 274.607 114.559 275.613 114.392ZM272.49 118.75C272.468 119.241 272.458 119.785 272.458 120.392V121.592C272.458 123.07 272.505 124.191 272.672 125.055C272.837 125.909 273.108 126.451 273.513 126.828C273.926 127.211 274.551 127.493 275.565 127.672C276.58 127.852 277.918 127.917 279.697 127.917H282.255C284.021 127.917 285.357 127.852 286.374 127.672C287.39 127.493 288.026 127.21 288.448 126.824C288.863 126.445 289.143 125.901 289.315 125.05C289.489 124.188 289.542 123.068 289.542 121.592V120.392C289.542 119.785 289.533 119.241 289.511 118.75H272.49Z" fill="#003746"/>
<path d="M263.373 146.161L263.376 134.875C263.377 134.53 263.656 134.25 264.002 134.25C264.347 134.25 264.627 134.53 264.626 134.875L264.623 146.164L268.578 142.539C268.832 142.306 269.227 142.323 269.461 142.578C269.694 142.832 269.677 143.227 269.422 143.461L265.267 147.27C264.55 147.927 263.45 147.927 262.733 147.27L258.578 143.461C258.323 143.227 258.306 142.832 258.539 142.578C258.772 142.323 259.168 142.306 259.422 142.539L263.373 146.161Z" fill="#003746"/>
<path d="M254.584 144.043C254.928 144.02 255.226 144.281 255.248 144.626C255.395 146.862 255.94 148.064 257.107 148.786C258.362 149.561 260.459 149.875 264 149.875C267.541 149.875 269.638 149.562 270.892 148.786C272.059 148.064 272.605 146.862 272.751 144.626C272.774 144.281 273.071 144.02 273.416 144.043C273.76 144.066 274.021 144.363 273.998 144.707C273.842 147.096 273.23 148.81 271.55 149.849C269.957 150.834 267.518 151.125 264 151.125C260.482 151.125 258.043 150.833 256.45 149.849C254.77 148.81 254.157 147.096 254.001 144.707C253.979 144.363 254.24 144.066 254.584 144.043Z" fill="#003746"/>
<path fill-rule="evenodd" clip-rule="evenodd" d="M305 38C305 43.8207 306.416 45 313 45C319.583 45 321 43.8207 321 38C321 32.1793 319.584 31 313 31C306.416 31 305 32.1793 305 38ZM312.808 34C312.324 34 311.863 34.1874 311.525 34.517C311.187 34.8462 311 35.29 311 35.75C311 36.0261 310.776 36.25 310.5 36.25C310.224 36.25 310 36.0261 310 35.75C310 35.0165 310.299 34.3157 310.827 33.801C311.354 33.2867 312.067 33 312.808 33H313.192C313.933 33 314.646 33.2867 315.173 33.801C315.701 34.3157 316 35.0165 316 35.75C316 36.4835 315.701 37.1843 315.173 37.699C314.673 38.1865 314.007 38.4695 313.308 38.4977V39.5C313.308 39.7761 313.084 40 312.808 40C312.532 40 312.308 39.7761 312.308 39.5V38.375C312.308 38.1388 312.404 37.9149 312.571 37.7518C312.738 37.5892 312.962 37.5 313.192 37.5C313.676 37.5 314.137 37.3126 314.475 36.983C314.813 36.6538 315 36.21 315 35.75C315 35.29 314.813 34.8462 314.475 34.517C314.137 34.1874 313.676 34 313.192 34H312.808ZM312.833 42.5C313.382 42.5 313.5 42.3876 313.5 41.8333C313.5 41.2791 313.382 41.1667 312.833 41.1667C312.285 41.1667 312.167 41.2791 312.167 41.8333C312.167 42.3876 312.285 42.5 312.833 42.5Z" fill="#003746"/>
<path d="M254.499 161.104C254.097 161.104 253.77 161.431 253.77 161.833C253.77 162.236 254.097 162.563 254.499 162.563H269.499C269.902 162.563 270.228 162.236 270.228 161.833C270.228 161.431 269.902 161.104 269.499 161.104H254.499Z" fill="#003746"/>
<path d="M255.437 166C255.437 165.597 255.763 165.27 256.166 165.27H267.833C268.235 165.27 268.562 165.597 268.562 166C268.562 166.402 268.235 166.729 267.833 166.729H256.166C255.763 166.729 255.437 166.402 255.437 166Z" fill="#003746"/>
<path d="M257.103 170.167C257.103 169.764 257.43 169.438 257.833 169.438H266.166C266.569 169.438 266.895 169.764 266.895 170.167C266.895 170.569 266.569 170.896 266.166 170.896H257.833C257.43 170.896 257.103 170.569 257.103 170.167Z" fill="#003746"/>
<path fill-rule="evenodd" clip-rule="evenodd" d="M202.106 36.9318C204.928 39.7648 206.101 39.7359 208.894 36.9318C211.687 34.1276 211.717 32.9475 208.894 30.1145C206.071 27.2814 204.898 27.309 202.106 30.1145C199.313 32.9199 199.283 34.0987 202.106 36.9318ZM205.5 30.3669C205.717 30.3668 205.893 30.5434 205.893 30.7613L205.894 34.4433C205.894 34.6612 205.718 34.8379 205.501 34.8379C205.284 34.838 205.108 34.6614 205.108 34.4435L205.107 30.7615C205.107 30.5436 205.283 30.3669 205.5 30.3669ZM205.5 36.5147C205.877 36.5147 205.958 36.4371 205.958 36.0545C205.958 35.6718 205.877 35.5942 205.5 35.5942C205.123 35.5942 205.042 35.6718 205.042 36.0545C205.042 36.4371 205.123 36.5147 205.5 36.5147Z" fill="#FF1B44"/>
<path d="M307.309 148.899C307.779 148.682 308.336 148.887 308.553 149.357L309 150.326L309.447 149.357C309.664 148.887 310.221 148.682 310.691 148.899C311.161 149.116 311.366 149.673 311.149 150.143L310.033 152.563L311.149 154.982C311.366 155.452 311.161 156.009 310.691 156.226C310.221 156.443 309.664 156.238 309.447 155.768L309 154.8L308.553 155.768C308.336 156.238 307.779 156.443 307.309 156.226C306.839 156.009 306.634 155.452 306.851 154.982L307.968 152.563L306.851 150.143C306.634 149.673 306.839 149.116 307.309 148.899Z" fill="#003746"/>
<path d="M301.188 149.752C301.188 149.235 301.607 148.815 302.125 148.815H303.571C303.594 148.813 303.617 148.812 303.639 148.812C303.662 148.812 303.685 148.813 303.708 148.815H305.154C305.672 148.815 306.091 149.235 306.091 149.752C306.091 150.27 305.672 150.69 305.154 150.69H304.577V155.375C304.577 155.893 304.157 156.312 303.639 156.312C303.122 156.312 302.702 155.893 302.702 155.375V150.69H302.125C301.607 150.69 301.188 150.27 301.188 149.752Z" fill="#003746"/>
<path d="M311.813 149.752C311.813 149.235 312.232 148.815 312.75 148.815H314.196C314.219 148.813 314.242 148.812 314.264 148.812C314.287 148.812 314.31 148.813 314.333 148.815H315.779C316.297 148.815 316.716 149.235 316.716 149.752C316.716 150.27 316.297 150.69 315.779 150.69H315.202V155.375C315.202 155.893 314.782 156.312 314.264 156.312C313.747 156.312 313.327 155.893 313.327 155.375V150.69H312.75C312.232 150.69 311.813 150.27 311.813 149.752Z" fill="#003746"/>
<path fill-rule="evenodd" clip-rule="evenodd" d="M310.648 171H303.286C300.429 171 298.286 168.857 298.286 166V146C298.286 143.143 300.429 141 303.286 141H314.714C317.571 141 319.714 143.143 319.714 146V162.667C319.714 166.833 314.357 171 310.648 171ZM309.53 169.125H303.286C301.464 169.125 300.161 167.822 300.161 166V146C300.161 144.178 301.464 142.875 303.286 142.875H314.714C316.536 142.875 317.839 144.178 317.839 146V160.775H313.181C312.202 160.775 311.264 161.164 310.572 161.856C309.88 162.548 309.491 163.486 309.491 164.465V168.856C309.491 168.949 309.505 169.04 309.53 169.125ZM311.344 169.058C312.53 168.844 314.023 168.124 315.344 166.979C316.947 165.59 317.839 163.978 317.839 162.667V162.65H313.181C312.7 162.65 312.238 162.842 311.898 163.182C311.557 163.522 311.366 163.984 311.366 164.465V168.856C311.366 168.925 311.359 168.993 311.344 169.058Z" fill="#003746"/>
<g clip-path="url(#clip0_1085_2235)">
<path d="M303.33 115.357C303.113 114.887 302.556 114.682 302.086 114.899C301.616 115.116 301.41 115.673 301.627 116.143L302.744 118.563L301.627 120.982C301.41 121.452 301.616 122.009 302.086 122.226C302.556 122.443 303.113 122.238 303.33 121.768L303.777 120.8L304.223 121.768C304.44 122.238 304.997 122.443 305.468 122.226C305.938 122.009 306.143 121.452 305.926 120.982L304.809 118.563L305.926 116.143C306.143 115.673 305.938 115.116 305.468 114.899C304.997 114.682 304.44 114.887 304.223 115.357L303.777 116.326L303.33 115.357Z" fill="#003746"/>
<path d="M314.227 114.812C313.537 114.812 312.941 115.081 312.533 115.565C312.143 116.029 311.987 116.611 311.987 117.16C311.987 117.988 312.404 118.587 312.85 118.952C313.249 119.278 313.769 119.498 314.21 119.503C314.216 119.505 314.231 119.51 314.252 119.52C314.3 119.544 314.36 119.585 314.418 119.644C314.545 119.77 314.584 119.894 314.584 119.962C314.584 120.087 314.531 120.217 314.438 120.316C314.342 120.419 314.256 120.437 314.227 120.437C313.933 120.437 313.707 120.347 313.58 120.28C313.123 120.038 312.556 120.212 312.313 120.669C312.071 121.127 312.245 121.694 312.703 121.937C313.017 122.103 313.546 122.312 314.227 122.312C315.474 122.312 316.459 121.18 316.459 119.962C316.459 119.279 316.129 118.705 315.748 118.321C315.39 117.962 314.858 117.644 314.27 117.629C314.26 117.626 314.245 117.621 314.226 117.613C314.168 117.59 314.1 117.552 314.038 117.501C313.921 117.405 313.862 117.301 313.862 117.16C313.862 116.947 313.923 116.825 313.967 116.774C313.987 116.75 314.009 116.733 314.039 116.719C314.07 116.706 314.128 116.687 314.227 116.687C314.48 116.687 314.734 116.786 314.898 116.872C315.357 117.112 315.923 116.935 316.164 116.477C316.404 116.018 316.227 115.451 315.768 115.211C315.478 115.059 314.911 114.812 314.227 114.812Z" fill="#003746"/>
<path d="M309.041 120.437V115.75C309.041 115.232 308.621 114.812 308.104 114.812C307.586 114.812 307.166 115.232 307.166 115.75V121.375C307.166 121.893 307.586 122.312 308.104 122.312H310.267C310.785 122.312 311.204 121.893 311.204 121.375C311.204 120.857 310.785 120.437 310.267 120.437H309.041Z" fill="#003746"/>
<path fill-rule="evenodd" clip-rule="evenodd" d="M303.286 137H310.648C314.357 137 319.714 132.833 319.714 128.667V112C319.714 109.143 317.571 107 314.714 107H303.286C300.428 107 298.286 109.143 298.286 112V132C298.286 134.857 300.428 137 303.286 137ZM303.286 135.125H309.53C309.505 135.04 309.491 134.949 309.491 134.856V130.465C309.491 129.486 309.88 128.548 310.572 127.856C311.264 127.164 312.202 126.775 313.181 126.775H317.839V112C317.839 110.178 316.536 108.875 314.714 108.875H303.286C301.464 108.875 300.161 110.178 300.161 112V132C300.161 133.822 301.464 135.125 303.286 135.125ZM315.344 132.979C314.022 134.124 312.529 134.844 311.344 135.058C311.358 134.993 311.366 134.925 311.366 134.856V130.465C311.366 129.984 311.557 129.522 311.897 129.182C312.238 128.842 312.699 128.65 313.181 128.65H317.839V128.667C317.839 129.978 316.947 131.59 315.344 132.979Z" fill="#003746"/>
</g>
<g clip-path="url(#clip1_1085_2235)">
<path fill-rule="evenodd" clip-rule="evenodd" d="M257 48C261.418 48 265 44.4183 265 40C265 35.5817 261.418 32 257 32C252.582 32 249 35.5817 249 40C249 44.4183 252.582 48 257 48ZM257 50C262.523 50 267 45.5228 267 40C267 34.4772 262.523 30 257 30C251.477 30 247 34.4772 247 40C247 45.5228 251.477 50 257 50Z" fill="#003746"/>
</g>
<g clip-path="url(#clip2_1085_2235)">
<path fill-rule="evenodd" clip-rule="evenodd" d="M235.7 31.9H224.3C223.251 31.9 222.4 32.7507 222.4 33.8V45.2C222.4 46.2493 223.251 47.1 224.3 47.1H235.7C236.749 47.1 237.6 46.2493 237.6 45.2V33.8C237.6 32.7507 236.749 31.9 235.7 31.9ZM224.3 30C222.201 30 220.5 31.7013 220.5 33.8V45.2C220.5 47.2987 222.201 49 224.3 49H235.7C237.799 49 239.5 47.2987 239.5 45.2V33.8C239.5 31.7013 237.799 30 235.7 30H224.3Z" fill="#003746"/>
</g>
<path fill-rule="evenodd" clip-rule="evenodd" d="M352.5 19.5C352.5 23.1379 353.385 23.875 357.5 23.875C361.614 23.875 362.5 23.1379 362.5 19.5C362.5 15.8621 361.615 15.125 357.5 15.125C353.385 15.125 352.5 15.8621 352.5 19.5ZM354.46 20.6247C354.342 20.7501 354.347 20.9479 354.473 21.0664C354.598 21.185 354.796 21.1794 354.915 21.0539L357.249 18.5838C357.388 18.4364 357.612 18.4364 357.751 18.5838L360.085 21.0539C360.204 21.1794 360.402 21.185 360.527 21.0664C360.653 20.9479 360.658 20.7501 360.54 20.6247L358.205 18.1545C357.819 17.7462 357.18 17.7462 356.795 18.1545L354.46 20.6247Z" fill="#003746"/>
<path fill-rule="evenodd" clip-rule="evenodd" d="M336.5 19.5C336.5 23.1379 337.385 23.875 341.5 23.875C345.614 23.875 346.5 23.1379 346.5 19.5C346.5 15.8621 345.615 15.125 341.5 15.125C337.385 15.125 336.5 15.8621 336.5 19.5ZM344.54 18.3753C344.658 18.2499 344.653 18.0521 344.527 17.9336C344.402 17.815 344.204 17.8206 344.085 17.9461L341.751 20.4162C341.612 20.5636 341.388 20.5636 341.249 20.4162L338.915 17.9461C338.796 17.8206 338.598 17.815 338.473 17.9336C338.347 18.0521 338.342 18.2499 338.46 18.3753L340.795 20.8455C341.181 21.2538 341.82 21.2538 342.205 20.8455L344.54 18.3753Z" fill="#003746"/>
<defs>
<clipPath id="clip0_1085_2235">
<rect width="30" height="30" fill="white" transform="translate(294 107)"/>
</clipPath>
<clipPath id="clip1_1085_2235">
<rect width="20" height="20" fill="white" transform="translate(247 30)"/>
</clipPath>
<clipPath id="clip2_1085_2235">
<rect width="19" height="19" fill="white" transform="translate(220.5 30)"/>
</clipPath>
</defs>
</svg>
