<svg width="24" height="24" viewBox="0 0 24 24" fill="none" xmlns="http://www.w3.org/2000/svg">
<path d="M11.6923 6.08789C10.9013 6.08789 10.1492 6.38857 9.5997 6.91379C9.05138 7.43791 8.75 8.14136 8.75 8.8673C8.75 9.28152 8.41421 9.6173 8 9.6173C7.58579 9.6173 7.25 9.28152 7.25 8.8673C7.25 7.72113 7.72665 6.62914 8.56322 5.82948C9.39865 5.03091 10.5248 4.58789 11.6923 4.58789H12.3077C13.4752 4.58789 14.6014 5.03091 15.4368 5.82948C16.2733 6.62914 16.75 7.72113 16.75 8.8673C16.75 10.0135 16.2733 11.1055 15.4368 11.9051C14.6335 12.673 13.5615 13.1121 12.4423 13.1448V14.7497C12.4423 15.1639 12.1065 15.4997 11.6923 15.4997C11.2781 15.4997 10.9423 15.1639 10.9423 14.7497V12.985C10.9423 12.6188 11.0948 12.2749 11.3543 12.0269C11.6127 11.7799 11.9562 11.6467 12.3077 11.6467C13.0987 11.6467 13.8508 11.346 14.4003 10.8208C14.9486 10.2967 15.25 9.59325 15.25 8.8673C15.25 8.14136 14.9486 7.43791 14.4003 6.91379C13.8508 6.38857 13.0987 6.08789 12.3077 6.08789H11.6923Z" fill="#003746"/>
<path d="M12.6719 18.25C12.6719 19.0813 12.4949 19.25 11.6719 19.25C10.8489 19.25 10.6719 19.0813 10.6719 18.25C10.6719 17.4187 10.8489 17.25 11.6719 17.25C12.4949 17.25 12.6719 17.4187 12.6719 18.25Z" fill="#003746"/>
<path fill-rule="evenodd" clip-rule="evenodd" d="M0 12C0 20.7311 2.12463 22.5 12 22.5C21.8747 22.5 24 20.7311 24 12C24 3.26894 21.8754 1.5 12 1.5C2.12463 1.5 0 3.26894 0 12ZM6.23932 20.6136C7.68644 20.8891 9.55826 21 12 21C14.4416 21 16.3133 20.8891 17.7604 20.6136C19.2009 20.3394 20.1086 19.9222 20.7194 19.3917C21.9194 18.3494 22.5 16.4006 22.5 12C22.5 7.59934 21.9195 5.65055 20.7196 4.60829C20.1089 4.07779 19.2012 3.66057 17.7607 3.38636C16.3136 3.1109 14.4417 3 12 3C9.55826 3 7.68644 3.1109 6.23932 3.38636C4.7988 3.66057 3.89114 4.07779 3.2804 4.60829C2.0805 5.65055 1.5 7.59934 1.5 12C1.5 16.4007 2.0805 18.3495 3.2804 19.3917C3.89114 19.9222 4.7988 20.3394 6.23932 20.6136Z" fill="#003746"/>
</svg>
