<svg width="24" height="24" viewBox="0 0 24 24" fill="none" xmlns="http://www.w3.org/2000/svg">
<path d="M22.211 14.9816C21.4884 16.1064 20.3874 17.3638 18.8755 18.8758C17.3631 20.3878 16.1058 21.4886 14.9812 22.2111C13.8638 22.9289 12.9193 23.2459 12.0212 23.2492C11.1235 23.2524 10.176 22.9424 9.05199 22.227C7.92052 21.5069 6.65176 20.4027 5.12408 18.8757C3.59644 17.3487 2.49199 16.0804 1.77183 14.9493C1.05643 13.8256 0.746602 12.8782 0.750028 11.9805C0.753456 11.0824 1.0708 10.1375 1.78883 9.01979C2.51149 7.89486 3.61246 6.63707 5.12435 5.1243C6.63619 3.61159 7.89326 2.51046 9.01763 1.78794C10.1348 1.07008 11.0793 0.753122 11.9773 0.750023C12.8751 0.746925 13.8228 1.05715 14.9471 1.77281C16.0788 2.4932 17.3478 3.59761 18.8757 5.12461C20.4035 6.65152 21.508 7.91996 22.2282 9.0513C22.9436 10.1752 23.2534 11.1229 23.25 12.0208C23.2465 12.9191 22.9291 13.864 22.211 14.9816ZM13.5 5.74965C13.4998 4.92122 12.8281 4.24981 11.9996 4.25C11.1712 4.25019 10.4998 4.92192 10.5 5.75035L10.5019 13.7503C10.5021 14.5788 11.1738 15.2502 12.0022 15.25C12.8307 15.2498 13.5021 14.5781 13.5019 13.7497L13.5 5.74965ZM12 19C12.2215 19 12.451 18.9896 12.663 18.9435C12.8833 18.8955 13.1303 18.7993 13.3371 18.594C13.5441 18.3884 13.6424 18.1415 13.6917 17.9195C13.739 17.706 13.75 17.4746 13.75 17.25C13.75 17.0254 13.739 16.794 13.6917 16.5805C13.6424 16.3585 13.5441 16.1116 13.3371 15.906C13.1303 15.7007 12.8833 15.6045 12.663 15.5565C12.451 15.5104 12.2215 15.5 12 15.5C11.7785 15.5 11.549 15.5104 11.337 15.5565C11.1167 15.6045 10.8697 15.7007 10.6629 15.906C10.4559 16.1116 10.3576 16.3585 10.3083 16.5805C10.261 16.794 10.25 17.0254 10.25 17.25C10.25 17.4746 10.261 17.706 10.3083 17.9195C10.3576 18.1415 10.4559 18.3884 10.6629 18.594C10.8697 18.7993 11.1167 18.8955 11.337 18.9435C11.549 18.9896 11.7785 19 12 19Z" fill="#FF1B44" stroke="#FF1B44" stroke-width="1.5" stroke-miterlimit="10" stroke-linecap="round"/>
</svg>
