<svg width="209" height="41" viewBox="0 0 209 41" fill="none" xmlns="http://www.w3.org/2000/svg">
<path d="M35.8105 16.8045C35.2099 16.6083 34.6576 16.4459 34.1306 16.313C34.6345 15.7392 35.1616 15.062 35.6761 14.3511C37.0705 12.423 37.7761 10.9336 37.7761 9.60674C37.7761 7.36851 36.2473 5.84542 33.3242 3.51649C31.1045 1.74869 29.3658 0.774082 27.7257 0.774082C25.8903 0.774082 24.244 1.97019 22.3351 4.60923C21.9655 5.12185 21.64 5.60072 21.3544 6.05216C20.968 5.39398 20.4893 4.68096 19.9748 3.97004C18.0974 1.3753 16.5707 0.284668 14.8131 0.284668C13.2087 0.284668 11.4154 1.25506 8.9878 2.87308C5.92187 4.91722 4.4603 6.51626 4.4603 8.80722C4.4603 10.2016 5.22469 11.7606 6.63166 13.7098C7.00125 14.2224 7.35404 14.6802 7.68164 15.0937C6.94035 15.2582 6.11717 15.4966 5.28559 15.7666C1.34397 17.0534 0 18.6419 0 21.2725C0 22.5193 0.346494 24.0529 0.867282 25.9325C2.07476 30.2845 3.54472 32.2822 6.60436 32.2822C7.63544 32.2822 8.91431 32.0206 10.399 31.5333C10.9975 31.3371 11.5413 31.1431 12.0369 30.9469C11.9634 31.7063 11.934 32.567 11.934 33.4467C11.934 39.6952 14.3049 40.8195 21.2767 40.8195C26.094 40.8195 28.4271 39.577 28.4271 33.4467C28.4271 32.8138 28.4124 32.2337 28.3788 31.7C29.076 32.0038 29.8803 32.297 30.7118 32.5691C32.0042 33.0233 33.3601 33.269 34.729 33.2969C37.2154 33.2969 38.719 31.0967 40.2414 26.9683C40.9554 25.0465 41.3208 23.4728 41.3208 22.1775C41.3208 19.5427 39.6576 18.0618 35.8105 16.8045ZM26.5707 8.05833L27.2532 7.11748C27.3357 6.98877 27.4451 6.87965 27.5737 6.79767C27.7024 6.7157 27.8473 6.66284 27.9984 6.64276C28.1494 6.62269 28.303 6.63589 28.4485 6.68143C28.594 6.72698 28.7278 6.80379 28.8408 6.90652C31.5203 9.25866 33.1772 12.7542 33.1478 16.0788C31.5623 15.7772 30.4031 15.8679 29.4771 16.4628C29.5044 16.294 29.5212 16.1126 29.5359 15.9206C29.6325 13.9545 28.6497 11.8576 26.7177 9.62361C26.2935 9.14686 26.1696 8.59627 26.5665 8.05833H26.5707ZM24.0697 14.9945C26.367 16.6695 27.6795 17.353 28.4397 17.4353C27.7194 18.3677 27.1293 19.7557 26.5077 21.6712C25.632 24.3841 25.3905 25.8481 25.548 26.6012C24.4435 26.2025 22.9483 26.0654 20.9407 26.0654C18.1037 26.0654 16.64 26.2869 15.9765 26.6687C16.0143 25.4916 15.6804 24.0212 15.0609 22.1037C14.1831 19.3929 13.5216 18.0639 12.9609 17.5471C14.0865 17.218 15.3759 16.4459 17.0012 15.2603C19.2965 13.5853 20.3486 12.5411 20.6615 11.8407C21.3229 12.8154 22.4527 13.8089 24.0697 14.9945ZM10.8148 8.21866C13.8702 6.38336 17.6921 5.88128 20.8295 6.93606C20.0546 8.36 19.7795 9.49704 20.0588 10.5645C19.9097 10.4864 19.7417 10.4126 19.5632 10.3387C17.7341 9.63838 15.4431 9.9295 12.732 11.0855C12.1419 11.3366 11.5854 11.2775 11.197 10.7396L10.5166 9.7966C10.4216 9.67708 10.3536 9.53825 10.3173 9.38971C10.2811 9.24118 10.2774 9.08649 10.3065 8.93639C10.3357 8.78628 10.397 8.64434 10.4862 8.52041C10.5754 8.39648 10.6904 8.29351 10.8232 8.21866H10.8148ZM11.1949 18.1335C9.96638 19.665 9.53379 21.9433 9.78999 24.884C9.84669 25.5169 9.61779 26.0401 8.98991 26.2447L7.90003 26.6054C7.75776 26.6599 7.6054 26.6827 7.4535 26.6721C7.3016 26.6616 7.15381 26.618 7.02036 26.5443C6.88691 26.4707 6.77101 26.3687 6.68068 26.2456C6.59036 26.1225 6.52777 25.9811 6.49726 25.8312C5.70558 22.3463 6.41116 18.5385 8.38722 15.8658C9.4939 17.0471 10.4872 17.6525 11.5833 17.7221C11.449 17.8424 11.3272 17.9795 11.2033 18.1272L11.1949 18.1335ZM22.984 34.3179C22.9916 34.4706 22.9662 34.6231 22.9093 34.765C22.8524 34.9068 22.7656 35.0345 22.6547 35.1392C22.5439 35.2439 22.4117 35.3232 22.2673 35.3716C22.1229 35.4199 21.9698 35.4361 21.8185 35.4191C18.2738 35.0985 14.8887 33.2484 12.9672 30.5418C14.4372 29.8478 15.3066 29.0863 15.7119 28.061C15.7875 28.215 15.882 28.3732 15.9828 28.5357C17.0537 30.1832 19.076 31.2992 21.9445 31.9658C22.5745 32.1113 22.9945 32.4868 22.9945 33.1513L22.984 34.3179ZM35.6278 23.728C34.2293 27.0147 31.4279 29.679 28.278 30.6769C28.068 29.0694 27.6228 27.9914 26.7786 27.2889C26.9466 27.2615 27.1251 27.2235 27.312 27.1771C29.202 26.6624 30.8819 25.0676 32.4023 22.5361C32.732 21.9834 33.215 21.7029 33.845 21.9033L34.9495 22.264C35.0973 22.3033 35.2348 22.3745 35.3524 22.4727C35.4699 22.5709 35.5647 22.6937 35.6301 22.8325C35.6955 22.9713 35.73 23.1228 35.731 23.2764C35.7321 23.43 35.6997 23.582 35.6362 23.7217L35.6278 23.728Z" fill="#FF1B44"/>
<path d="M66.6084 17.6021V17.4438C69.3384 15.9334 70.6424 13.9083 70.6424 11.2059C70.6424 6.79698 67.4001 4.0166 61.8226 4.0166H52.0956C51.5811 4.0166 51.304 4.29506 51.304 4.8119V31.0293C51.304 31.5461 51.5811 31.8246 52.0956 31.8246H62.2594C68.3493 31.8246 71.5118 29.1244 71.5118 24.3568C71.5118 21.2579 69.7332 18.8741 66.6084 17.6021ZM55.9701 7.63236H61.4677C64.9873 7.63236 65.8167 8.46563 65.8167 11.8029C65.8167 15.1782 64.9873 15.9735 61.4677 15.9735H55.9701V7.63236ZM62.1397 28.2088H55.9701V19.585H62.1397C65.8167 19.585 66.6987 20.4289 66.6987 23.8801C66.6987 27.3313 65.8167 28.2088 62.1397 28.2088ZM179.502 11.3325C173.609 11.3325 169.773 15.463 169.773 21.7009C169.773 27.9789 173.609 32.0714 179.502 32.0714C183.893 32.0714 187.253 29.8079 188.559 26.3503C188.756 25.8736 188.441 25.555 187.887 25.555H185.079C184.873 25.5451 184.67 25.6068 184.504 25.7298C184.338 25.8527 184.22 26.0294 184.168 26.2301C183.538 28.1772 182.389 28.7341 179.422 28.7341C175.745 28.7341 174.636 27.5823 174.479 22.9329H188.204C188.717 22.9329 188.994 22.6544 188.994 22.1376V21.6946C188.994 15.2562 185.357 11.3241 179.502 11.3241V11.3325ZM174.519 20.2706C174.676 15.7815 175.745 14.6698 179.422 14.6698C183.099 14.6698 184.208 15.8617 184.368 20.2706H174.519ZM159.886 11.3325C157.316 11.3325 155.298 12.1658 153.519 14.193H153.4C151.976 12.2058 150.275 11.3325 147.94 11.3325C145.449 11.3325 143.511 12.286 142.087 14.193H141.927L141.178 12.2016C141.112 12.013 140.989 11.8501 140.826 11.7363C140.662 11.6226 140.467 11.5639 140.269 11.5688H138.379C137.864 11.5688 137.589 11.8451 137.589 12.362V31.0356C137.589 31.5525 137.864 31.8309 138.379 31.8309H141.386C141.898 31.8309 142.175 31.5525 142.175 31.0356V18.4417C142.175 15.3027 142.887 14.6677 146.249 14.6677C149.294 14.6677 150.046 15.3828 150.046 18.4417V31.0356C150.046 31.5525 150.323 31.8309 150.838 31.8309H153.805C154.317 31.8309 154.594 31.5525 154.594 31.0356V18.4417C154.594 15.3027 155.306 14.6677 158.668 14.6677C161.713 14.6677 162.465 15.3828 162.465 18.4417V31.0356C162.465 31.5525 162.742 31.8309 163.257 31.8309H166.222C166.736 31.8309 167.014 31.5525 167.014 31.0356V20.5006C167.005 14.5411 164.712 11.3241 159.886 11.3241V11.3325ZM208.185 30.8795L201.726 21.2558V21.0976L207.62 12.516C207.975 11.959 207.738 11.5624 207.106 11.5624H204.141C203.95 11.547 203.759 11.5874 203.59 11.6787C203.422 11.7701 203.283 11.9085 203.192 12.0772L199.277 18.5535H199.118L195.243 12.1173C195.154 11.9438 195.017 11.7996 194.849 11.7013C194.681 11.6031 194.488 11.5549 194.294 11.5624H190.97C190.34 11.5624 190.1 11.9991 190.457 12.516L196.35 21.376V21.5343L189.983 30.8711C189.626 31.428 189.823 31.8246 190.457 31.8246H193.462C193.654 31.844 193.847 31.8052 194.016 31.713C194.186 31.6208 194.323 31.4796 194.412 31.3078L198.84 24.1163H198.96L203.429 31.3078C203.517 31.4796 203.655 31.6208 203.824 31.713C203.993 31.8052 204.186 31.844 204.378 31.8246H207.66C208.294 31.8204 208.532 31.3985 208.175 30.8711L208.185 30.8795ZM125.321 11.3241C121.207 11.3241 117.885 13.7859 116.936 17.2434C116.776 17.8004 117.093 18.1168 117.648 18.1168H120.378C120.852 18.1168 121.13 17.8784 121.249 17.3616C121.644 15.2963 122.673 14.6614 125.323 14.6614C128.248 14.6614 129.08 15.1782 129.08 18.5155V18.7138C129.08 19.5871 128.763 19.9057 127.893 19.9057H124.332C119.387 19.9057 116.104 22.0912 116.104 25.9833C116.104 29.6792 119.111 32.063 122.788 32.063C125.518 32.063 127.732 30.8711 129.118 28.6877H129.277L130.069 31.1517C130.109 31.3503 130.219 31.5278 130.379 31.6518C130.538 31.7757 130.737 31.8378 130.938 31.8267H132.828C133.343 31.8267 133.62 31.5483 133.62 31.0314V19.4711C133.626 14.5812 130.344 11.3241 125.321 11.3241ZM129.078 23.7197C129.078 27.2553 127.494 28.8459 123.935 28.8459C121.205 28.8459 120.575 28.1287 120.575 25.8251C120.575 23.4012 121.09 22.8063 124.174 22.8063H129.08L129.078 23.7197ZM106.1 11.3241C103.568 11.3241 101.552 12.2776 100.088 14.1846H99.9284L99.1787 12.2016C99.113 12.0128 98.9894 11.8499 98.8256 11.7361C98.6618 11.6224 98.4664 11.5638 98.2673 11.5688H96.3774C95.865 11.5688 95.5878 11.8451 95.5878 12.362V31.0356C95.5878 31.5525 95.865 31.8309 96.3774 31.8309H99.3845C99.899 31.8309 100.176 31.5525 100.176 31.0356V18.4417C100.176 15.3027 100.888 14.6677 104.408 14.6677C107.572 14.6677 108.362 15.3828 108.362 18.4417V31.0356C108.362 31.5525 108.639 31.8309 109.153 31.8309H112.119C112.633 31.8309 112.91 31.5525 112.91 31.0356V20.5006C112.898 14.6213 110.449 11.3241 106.1 11.3241ZM83.3199 11.3241C79.206 11.3241 75.8839 13.7859 74.9347 17.2434C74.7772 17.8004 75.0922 18.1168 75.6466 18.1168H78.3766C78.8512 18.1168 79.1263 17.8784 79.2459 17.3616C79.6407 15.2963 80.6697 14.6614 83.3199 14.6614C86.2472 14.6614 87.0767 15.1782 87.0767 18.5155V18.7138C87.0767 19.5871 86.7596 19.9057 85.8902 19.9057H82.3308C77.3875 19.9057 74.1032 22.0912 74.1032 25.9833C74.1032 29.6792 77.1103 32.063 80.7894 32.063C83.5194 32.063 85.7327 30.8711 87.1166 28.6877H87.2783L88.07 31.1517C88.11 31.3503 88.2199 31.5278 88.3795 31.6518C88.5392 31.7757 88.7379 31.8378 88.9393 31.8267H90.8293C91.3438 31.8267 91.621 31.5483 91.621 31.0314V19.4711C91.6252 14.5812 88.3429 11.3241 83.3199 11.3241ZM87.0683 23.7197C87.0683 27.2553 85.487 28.8459 81.9276 28.8459C79.1976 28.8459 78.5677 28.1287 78.5677 25.8251C78.5677 23.4012 79.0822 22.8063 82.167 22.8063H87.0683V23.7197Z" fill="#003746"/>
</svg>
