<svg width="160" height="32" viewBox="0 0 160 32" fill="none" xmlns="http://www.w3.org/2000/svg">
<path d="M26.1629 13.676C25.7242 13.5334 25.3207 13.4152 24.9356 13.3186C25.3038 12.9013 25.6889 12.4088 26.0647 11.8918C27.0835 10.4895 27.599 9.40633 27.599 8.44131C27.599 6.81351 26.4821 5.70581 24.3464 4.01204C22.7248 2.72636 21.4544 2.01756 20.2562 2.01756C18.9153 2.01756 17.7125 2.88746 16.3179 4.80676C16.0479 5.17957 15.8101 5.52784 15.6014 5.85616C15.3191 5.37748 14.9693 4.85892 14.5934 4.34189C13.2218 2.45481 12.1065 1.66162 10.8223 1.66162C9.6502 1.66162 8.33998 2.36736 6.56643 3.5441C4.32648 5.03075 3.25867 6.19369 3.25867 7.85984C3.25867 8.87396 3.81712 10.0077 4.84505 11.4254C5.11507 11.7982 5.37282 12.1311 5.61215 12.4318C5.07058 12.5515 4.46916 12.7248 3.86162 12.9212C0.981897 13.8571 0 15.0123 0 16.9255C0 17.8322 0.253146 18.9476 0.633631 20.3146C1.5158 23.4797 2.58975 24.9326 4.8251 24.9326C5.5784 24.9326 6.51273 24.7423 7.59742 24.3879C8.03467 24.2452 8.43204 24.1041 8.79411 23.9614C8.74041 24.5137 8.71894 25.1397 8.71894 25.7795C8.71894 30.3238 10.4511 31.1415 15.5446 31.1415C19.0641 31.1415 20.7686 30.2379 20.7686 25.7795C20.7686 25.3192 20.7579 24.8973 20.7334 24.5091C21.2427 24.73 21.8303 24.9433 22.4379 25.1412C23.3821 25.4715 24.3727 25.6502 25.3728 25.6705C27.1893 25.6705 28.2878 24.0703 29.4001 21.0679C29.9218 19.6702 30.1887 18.5257 30.1887 17.5837C30.1887 15.6674 28.9736 14.5904 26.1629 13.676ZM19.4124 7.3152L19.911 6.63094C19.9713 6.53733 20.0512 6.45797 20.1452 6.39835C20.2392 6.33873 20.3451 6.30029 20.4554 6.28569C20.5658 6.27109 20.678 6.28069 20.7843 6.31381C20.8906 6.34694 20.9884 6.4028 21.0709 6.47752C23.0285 8.18816 24.239 10.7304 24.2176 13.1483C23.0592 12.9289 22.2123 12.9949 21.5357 13.4275C21.5557 13.3048 21.568 13.1728 21.5787 13.0332C21.6493 11.6033 20.9313 10.0783 19.5198 8.45358C19.2099 8.10685 19.1194 7.70642 19.4093 7.3152H19.4124ZM17.5852 12.3597C19.2636 13.5779 20.2225 14.0749 20.7778 14.1348C20.2516 14.8129 19.8205 15.8224 19.3664 17.2155C18.7266 19.1885 18.5502 20.2532 18.6652 20.8009C17.8582 20.511 16.7659 20.4112 15.2992 20.4112C13.2265 20.4112 12.1571 20.5723 11.6723 20.85C11.6999 19.9939 11.456 18.9246 11.0034 17.53C10.3621 15.5585 9.8788 14.592 9.46916 14.2161C10.2915 13.9767 11.2335 13.4152 12.421 12.553C14.0979 11.3348 14.8665 10.5754 15.0951 10.066C15.5784 10.7748 16.4038 11.4975 17.5852 12.3597ZM7.9012 7.4318C10.1335 6.09703 12.9257 5.73189 15.2179 6.49899C14.6517 7.53459 14.4508 8.36153 14.6548 9.13784C14.5459 9.08108 14.4231 9.02738 14.2927 8.97368C12.9564 8.46432 11.2826 8.67604 9.30193 9.51679C8.87082 9.69936 8.46425 9.65641 8.18042 9.26518L7.68334 8.57939C7.61394 8.49247 7.56427 8.3915 7.53777 8.28347C7.51128 8.17545 7.50859 8.06295 7.5299 7.95378C7.5512 7.84461 7.596 7.74138 7.66117 7.65125C7.72635 7.56112 7.81034 7.48624 7.90733 7.4318H7.9012ZM8.17889 14.6426C7.28138 15.7564 6.96533 17.4134 7.1525 19.5521C7.19393 20.0123 7.0267 20.3928 6.56797 20.5416L5.77171 20.804C5.66777 20.8436 5.55645 20.8602 5.44548 20.8525C5.3345 20.8448 5.22653 20.8131 5.12903 20.7596C5.03154 20.706 4.94686 20.6319 4.88086 20.5423C4.81487 20.4528 4.76915 20.3499 4.74686 20.2409C4.16846 17.7064 4.68395 14.9372 6.12765 12.9933C6.93618 13.8525 7.66186 14.2928 8.46272 14.3434C8.36453 14.4309 8.27555 14.5306 8.18503 14.638L8.17889 14.6426ZM16.792 26.4131C16.7975 26.5241 16.7789 26.6351 16.7374 26.7382C16.6958 26.8413 16.6324 26.9342 16.5514 27.0104C16.4704 27.0866 16.3738 27.1442 16.2683 27.1794C16.1628 27.2145 16.051 27.2263 15.9405 27.2139C13.3507 26.9807 10.8776 25.6352 9.47377 23.6668C10.5477 23.1621 11.1829 22.6082 11.479 21.8626C11.5342 21.9746 11.6033 22.0897 11.6769 22.2078C12.4593 23.406 13.9368 24.2176 16.0325 24.7024C16.4928 24.8083 16.7996 25.0814 16.7996 25.5647L16.792 26.4131ZM26.0295 18.7113C25.0077 21.1016 22.961 23.0393 20.6597 23.765C20.5063 22.596 20.181 21.812 19.5643 21.3011C19.687 21.2811 19.8174 21.2535 19.954 21.2198C21.3348 20.8454 22.5621 19.6856 23.6729 17.8445C23.9138 17.4425 24.2667 17.2385 24.7269 17.3842L25.5339 17.6466C25.6419 17.6751 25.7423 17.7269 25.8282 17.7984C25.9141 17.8698 25.9834 17.9591 26.0311 18.0601C26.0789 18.161 26.1041 18.2712 26.1048 18.3829C26.1056 18.4946 26.082 18.6051 26.0356 18.7067L26.0295 18.7113Z" fill="#FF1B44"/>
<path d="M48.6638 14.2561V14.141C50.6582 13.0425 51.611 11.5697 51.611 9.60433C51.611 6.39783 49.2422 4.37573 45.1673 4.37573H38.0608C37.6849 4.37573 37.4824 4.57825 37.4824 4.95413V24.0213C37.4824 24.3972 37.6849 24.5997 38.0608 24.5997H45.4864C49.9356 24.5997 52.2462 22.6359 52.2462 19.1686C52.2462 16.9149 50.9467 15.1812 48.6638 14.2561ZM40.8914 7.00537H44.908C47.4794 7.00537 48.0854 7.61139 48.0854 10.0385C48.0854 12.4933 47.4794 13.0717 44.908 13.0717H40.8914V7.00537ZM45.399 21.9701H40.8914V15.6982H45.399C48.0854 15.6982 48.7297 16.3119 48.7297 18.8219C48.7297 21.3319 48.0854 21.9701 45.399 21.9701ZM131.143 9.69639C126.838 9.69639 124.035 12.7004 124.035 17.237C124.035 21.8029 126.838 24.7792 131.143 24.7792C134.351 24.7792 136.806 23.133 137.76 20.6185C137.904 20.2717 137.674 20.0401 137.269 20.0401H135.218C135.067 20.0328 134.919 20.0777 134.798 20.1671C134.676 20.2566 134.59 20.3851 134.552 20.531C134.092 21.9471 133.253 22.3521 131.085 22.3521C128.398 22.3521 127.588 21.5144 127.473 18.133H137.501C137.875 18.133 138.078 17.9305 138.078 17.5546V17.2324C138.078 12.55 135.42 9.69025 131.143 9.69025V9.69639ZM127.502 16.1968C127.617 12.932 128.398 12.1235 131.085 12.1235C133.771 12.1235 134.581 12.9903 134.698 16.1968H127.502ZM116.812 9.69639C114.934 9.69639 113.46 10.3024 112.16 11.7768H112.073C111.033 10.3315 109.79 9.69639 108.084 9.69639C106.264 9.69639 104.848 10.3898 103.808 11.7768H103.691L103.144 10.3285C103.096 10.1913 103.006 10.0728 102.887 9.99009C102.767 9.90738 102.625 9.8647 102.479 9.86822H101.099C100.723 9.86822 100.522 10.0692 100.522 10.4451V24.0259C100.522 24.4018 100.723 24.6043 101.099 24.6043H103.296C103.67 24.6043 103.872 24.4018 103.872 24.0259V14.8667C103.872 12.5838 104.393 12.122 106.849 12.122C109.073 12.122 109.623 12.6421 109.623 14.8667V24.0259C109.623 24.4018 109.825 24.6043 110.201 24.6043H112.369C112.743 24.6043 112.946 24.4018 112.946 24.0259V14.8667C112.946 12.5838 113.466 12.122 115.922 12.122C118.147 12.122 118.696 12.6421 118.696 14.8667V24.0259C118.696 24.4018 118.899 24.6043 119.274 24.6043H121.441C121.817 24.6043 122.019 24.4018 122.019 24.0259V16.3641C122.013 12.0299 120.338 9.69025 116.812 9.69025V9.69639ZM152.099 23.9124L147.38 16.9133V16.7983L151.686 10.5571C151.945 10.152 151.772 9.86361 151.31 9.86361H149.144C149.005 9.85239 148.865 9.88177 148.742 9.9482C148.619 10.0146 148.518 10.1153 148.451 10.238L145.591 14.948H145.474L142.644 10.2671C142.578 10.141 142.478 10.0361 142.355 9.96463C142.233 9.89318 142.092 9.85815 141.95 9.86361H139.521C139.061 9.86361 138.886 10.1812 139.147 10.5571L143.452 17.0008V17.1158L138.8 23.9063C138.54 24.3113 138.684 24.5997 139.147 24.5997H141.343C141.482 24.6139 141.623 24.5856 141.747 24.5186C141.871 24.4515 141.971 24.3488 142.036 24.2239L145.272 18.9937H145.359L148.624 24.2239C148.688 24.3488 148.789 24.4515 148.913 24.5186C149.036 24.5856 149.177 24.6139 149.317 24.5997H151.715C152.179 24.5967 152.352 24.2898 152.091 23.9063L152.099 23.9124ZM91.5588 9.69025C88.5533 9.69025 86.1262 11.4807 85.4327 13.9953C85.3161 14.4003 85.5478 14.6304 85.9528 14.6304H87.9473C88.294 14.6304 88.4965 14.4571 88.584 14.0812C88.8724 12.5792 89.6242 12.1174 91.5604 12.1174C93.6975 12.1174 94.3051 12.4933 94.3051 14.9204V15.0646C94.3051 15.6998 94.0734 15.9314 93.4382 15.9314H90.8362C87.2232 15.9314 84.8252 17.5209 84.8252 20.3515C84.8252 23.0394 87.0222 24.7731 89.7086 24.7731C91.703 24.7731 93.3201 23.9063 94.3327 22.3184H94.4493L95.0277 24.1103C95.057 24.2548 95.1372 24.3839 95.2539 24.4741C95.3705 24.5642 95.5157 24.6094 95.6629 24.6013H97.0436C97.4195 24.6013 97.622 24.3988 97.622 24.0229V15.6154C97.6266 12.0591 95.2287 9.69025 91.5588 9.69025ZM94.3035 18.7053C94.3035 21.2766 93.1467 22.4334 90.5463 22.4334C88.5518 22.4334 88.0915 21.9118 88.0915 20.2364C88.0915 18.4736 88.4674 18.041 90.7212 18.041H94.3051L94.3035 18.7053ZM77.5162 9.69025C75.6659 9.69025 74.1931 10.3837 73.1237 11.7706H73.0071L72.4594 10.3285C72.4114 10.1912 72.3211 10.0726 72.2014 9.98994C72.0818 9.90723 71.939 9.86461 71.7936 9.86822H70.4128C70.0384 9.86822 69.8359 10.0692 69.8359 10.4451V24.0259C69.8359 24.4018 70.0384 24.6043 70.4128 24.6043H72.6098C72.9857 24.6043 73.1882 24.4018 73.1882 24.0259V14.8667C73.1882 12.5838 73.7083 12.122 76.2796 12.122C78.5917 12.122 79.1685 12.6421 79.1685 14.8667V24.0259C79.1685 24.4018 79.371 24.6043 79.7469 24.6043H81.9132C82.2891 24.6043 82.4916 24.4018 82.4916 24.0259V16.3641C82.4824 12.0882 80.6935 9.69025 77.5162 9.69025ZM60.873 9.69025C57.8675 9.69025 55.4404 11.4807 54.7469 13.9953C54.6319 14.4003 54.862 14.6304 55.267 14.6304H57.2615C57.6082 14.6304 57.8092 14.4571 57.8967 14.0812C58.1851 12.5792 58.9369 12.1174 60.873 12.1174C63.0117 12.1174 63.6177 12.4933 63.6177 14.9204V15.0646C63.6177 15.6998 63.3861 15.9314 62.7509 15.9314H60.1504C56.5389 15.9314 54.1394 17.5209 54.1394 20.3515C54.1394 23.0394 56.3364 24.7731 59.0243 24.7731C61.0188 24.7731 62.6358 23.9063 63.6469 22.3184H63.765L64.3434 24.1103C64.3727 24.2548 64.453 24.3839 64.5696 24.4741C64.6862 24.5642 64.8314 24.6094 64.9786 24.6013H66.3594C66.7353 24.6013 66.9378 24.3988 66.9378 24.0229V15.6154C66.9408 12.0591 64.5429 9.69025 60.873 9.69025ZM63.6116 18.7053C63.6116 21.2766 62.4563 22.4334 59.8559 22.4334C57.8614 22.4334 57.4011 21.9118 57.4011 20.2364C57.4011 18.4736 57.777 18.041 60.0308 18.041H63.6116V18.7053Z" fill="white"/>
</svg>
