<svg width="187" height="18" viewBox="0 0 187 18" fill="none" xmlns="http://www.w3.org/2000/svg">
<path d="M0.404 14C0.278 14 0.188 13.91 0.188 13.784V1.616C0.188 1.49 0.278 1.4 0.404 1.4H5.228C7.91 1.4 9.494 2.66 9.494 4.658C9.494 5.882 8.882 6.8 7.586 7.484V7.556C9.08 8.132 9.89 9.212 9.89 10.598C9.89 12.776 8.36 14 5.48 14H0.404ZM5.408 12.182C7.028 12.182 7.424 11.804 7.424 10.364C7.424 8.924 7.028 8.564 5.408 8.564H2.6V12.182H5.408ZM2.6 6.746H5.066C6.632 6.746 7.028 6.404 7.028 4.982C7.028 3.578 6.632 3.218 5.066 3.218H2.6V6.746ZM14.4904 14.126C12.7264 14.126 11.3224 13.01 11.3224 11.336C11.3224 9.572 12.8704 8.546 15.2644 8.546H16.8664C17.2624 8.546 17.4244 8.402 17.4244 8.006V7.934C17.4244 6.584 17.0644 6.368 15.7504 6.368C14.5264 6.368 14.0764 6.638 13.9324 7.61C13.8964 7.736 13.8244 7.808 13.6984 7.808H11.8624C11.7184 7.808 11.6464 7.718 11.6824 7.574C12.0784 5.864 13.7164 4.676 15.7504 4.676C18.1804 4.676 19.7644 6.188 19.7644 8.492V13.784C19.7644 13.91 19.6744 14 19.5484 14H18.1984C18.0724 14 18.0004 13.928 17.9644 13.82L17.5324 12.614H17.4604C16.8124 13.568 15.8044 14.126 14.4904 14.126ZM15.1204 12.488C16.7224 12.488 17.4244 11.858 17.4244 10.364V10.004H15.2104C13.8424 10.004 13.5904 10.238 13.5904 11.246C13.5904 12.2 13.8964 12.488 15.1204 12.488ZM21.9883 14C21.8623 14 21.7723 13.91 21.7723 13.784V5.018C21.7723 4.892 21.8623 4.802 21.9883 4.802H23.3563C23.4823 4.802 23.5723 4.856 23.6083 4.964L24.0223 6.026H24.0943C24.7963 5.108 25.7683 4.676 26.9383 4.676C28.9903 4.676 30.1602 6.224 30.1602 8.87V13.784C30.1602 13.91 30.0703 14 29.9443 14H28.0183C27.8923 14 27.8023 13.91 27.8023 13.784V7.988C27.8023 6.674 27.4423 6.368 26.0203 6.368C24.4723 6.368 24.1303 6.638 24.1303 7.988V13.784C24.1303 13.91 24.0403 14 23.9143 14H21.9883ZM36.2465 14.126C33.4385 14.126 31.6025 12.236 31.6025 9.392C31.6025 6.566 33.4385 4.676 36.2285 4.676C38.5145 4.676 40.1705 5.99 40.4945 7.88C40.5305 8.024 40.4405 8.114 40.2965 8.114H38.4245C38.2985 8.114 38.2265 8.042 38.2085 7.916C38.0285 6.656 37.5965 6.368 36.2465 6.368C34.4105 6.368 34.0145 6.908 34.0145 9.392C34.0145 11.894 34.4285 12.434 36.2285 12.434C37.6325 12.434 38.0825 12.11 38.2985 10.886C38.3165 10.76 38.4065 10.688 38.5325 10.688H40.3865C40.5305 10.688 40.6025 10.76 40.5845 10.904C40.1705 12.848 38.4785 14.126 36.2465 14.126ZM45.0763 14.126C43.3123 14.126 41.9083 13.01 41.9083 11.336C41.9083 9.572 43.4563 8.546 45.8503 8.546H47.4523C47.8483 8.546 48.0103 8.402 48.0103 8.006V7.934C48.0103 6.584 47.6503 6.368 46.3363 6.368C45.1123 6.368 44.6623 6.638 44.5183 7.61C44.4823 7.736 44.4103 7.808 44.2843 7.808H42.4483C42.3043 7.808 42.2323 7.718 42.2683 7.574C42.6643 5.864 44.3023 4.676 46.3363 4.676C48.7663 4.676 50.3503 6.188 50.3503 8.492V13.784C50.3503 13.91 50.2603 14 50.1343 14H48.7843C48.6583 14 48.5863 13.928 48.5503 13.82L48.1183 12.614H48.0463C47.3983 13.568 46.3903 14.126 45.0763 14.126ZM45.7063 12.488C47.3083 12.488 48.0103 11.858 48.0103 10.364V10.004H45.7963C44.4283 10.004 44.1763 10.238 44.1763 11.246C44.1763 12.2 44.4823 12.488 45.7063 12.488ZM52.6462 14C52.5202 14 52.4302 13.91 52.4302 13.784V1.616C52.4302 1.49 52.5202 1.4 52.6462 1.4H54.8602C54.9682 1.4 55.0582 1.436 55.1122 1.544L60.4222 10.508H60.4942V1.616C60.4942 1.49 60.5842 1.4 60.7102 1.4H62.5462C62.6722 1.4 62.7622 1.49 62.7622 1.616V13.784C62.7622 13.91 62.6722 14 62.5462 14H60.3322C60.2242 14 60.1162 13.964 60.0622 13.856L54.7882 4.856H54.6982V13.784C54.6982 13.91 54.6082 14 54.4822 14H52.6462ZM69.1532 14.126C66.3272 14.126 64.4912 12.254 64.4912 9.41C64.4912 6.566 66.3272 4.676 69.1532 4.676C71.9792 4.676 73.7072 6.476 73.7072 9.392V9.806C73.7072 9.932 73.6172 10.022 73.4912 10.022H66.9212C66.9932 12.002 67.4792 12.434 69.1172 12.434C70.5212 12.434 71.0252 12.2 71.2952 11.264C71.3312 11.138 71.4212 11.084 71.5472 11.084H73.4012C73.5452 11.084 73.6352 11.156 73.5992 11.282C73.0592 12.992 71.3672 14.126 69.1532 14.126ZM66.9212 8.708H71.3132C71.2592 6.818 70.7732 6.368 69.1172 6.368C67.4792 6.368 66.9932 6.8 66.9212 8.708ZM79.58 14.126C77.456 14.126 76.322 12.632 76.322 10.58V6.476H74.864C74.738 6.476 74.648 6.386 74.648 6.26V5.018C74.648 4.892 74.738 4.802 74.864 4.802H76.322V2.732C76.322 2.606 76.394 2.516 76.52 2.498L78.446 2.138C78.59 2.102 78.68 2.174 78.68 2.318V4.802H80.822C80.948 4.802 81.038 4.892 81.038 5.018V6.26C81.038 6.386 80.948 6.476 80.822 6.476H78.68V11.39C78.68 12.344 78.77 12.434 79.85 12.434H80.804C80.93 12.434 81.02 12.524 81.02 12.65V13.694C81.02 13.802 80.966 13.892 80.84 13.946C80.444 14.09 79.976 14.126 79.58 14.126ZM87.2927 14C87.1667 14 87.0767 13.91 87.0767 13.784V1.616C87.0767 1.49 87.1667 1.4 87.2927 1.4H95.1407C95.2667 1.4 95.3567 1.49 95.3567 1.616V3.056C95.3567 3.182 95.2667 3.272 95.1407 3.272H89.4887V6.71H94.7807C94.9067 6.71 94.9967 6.8 94.9967 6.926V8.366C94.9967 8.492 94.9067 8.582 94.7807 8.582H89.4887V12.128H95.2847C95.4107 12.128 95.5007 12.218 95.5007 12.344V13.784C95.5007 13.91 95.4107 14 95.2847 14H87.2927ZM97.6621 14C97.5361 14 97.4461 13.91 97.4461 13.784V5.018C97.4461 4.892 97.5361 4.802 97.6621 4.802H99.0301C99.1561 4.802 99.2461 4.856 99.2821 4.964L99.6961 6.026H99.7681C100.434 5.144 101.352 4.676 102.54 4.676C103.602 4.676 104.43 5.072 105.096 6.026H105.168C106.014 5.054 106.932 4.676 108.192 4.676C110.442 4.676 111.54 6.152 111.54 8.87V13.784C111.54 13.91 111.45 14 111.324 14H109.398C109.272 14 109.182 13.91 109.182 13.784V7.988C109.182 6.674 108.84 6.368 107.49 6.368C106.014 6.368 105.672 6.638 105.672 7.988V13.784C105.672 13.91 105.582 14 105.456 14H103.53C103.404 14 103.314 13.91 103.314 13.784V7.988C103.314 6.674 102.972 6.368 101.622 6.368C100.146 6.368 99.8041 6.638 99.8041 7.988V13.784C99.8041 13.91 99.7141 14 99.5881 14H97.6621ZM118.858 4.676C121.162 4.676 122.674 6.548 122.674 9.41C122.674 12.254 121.162 14.108 118.858 14.108C117.67 14.108 116.59 13.532 115.996 12.632H115.906V17.204C115.906 17.33 115.816 17.42 115.69 17.42H113.764C113.638 17.42 113.548 17.33 113.548 17.204V5.018C113.548 4.892 113.638 4.802 113.764 4.802H115.132C115.258 4.802 115.348 4.856 115.384 4.982L115.816 6.152H115.87C116.446 5.234 117.598 4.676 118.858 4.676ZM118.03 6.368C116.212 6.368 115.78 6.926 115.78 9.41C115.78 11.876 116.212 12.434 118.03 12.434C119.848 12.434 120.244 11.894 120.244 9.41C120.244 6.908 119.848 6.368 118.03 6.368ZM124.539 14C124.413 14 124.323 13.91 124.323 13.784V5.018C124.323 4.892 124.413 4.802 124.539 4.802H125.907C126.033 4.802 126.105 4.874 126.141 4.982L126.573 6.296H126.645C127.077 5.396 127.995 4.73 129.651 4.676C129.795 4.676 129.867 4.766 129.867 4.892V6.602C129.867 6.728 129.777 6.818 129.651 6.818H128.589C127.005 6.818 126.681 7.196 126.681 8.51V13.784C126.681 13.91 126.591 14 126.465 14H124.539ZM135.493 14.126C132.667 14.126 130.831 12.254 130.831 9.41C130.831 6.566 132.667 4.676 135.493 4.676C138.319 4.676 140.047 6.476 140.047 9.392V9.806C140.047 9.932 139.957 10.022 139.831 10.022H133.261C133.333 12.002 133.819 12.434 135.457 12.434C136.861 12.434 137.365 12.2 137.635 11.264C137.671 11.138 137.761 11.084 137.887 11.084H139.741C139.885 11.084 139.975 11.156 139.939 11.282C139.399 12.992 137.707 14.126 135.493 14.126ZM133.261 8.708H137.653C137.599 6.818 137.113 6.368 135.457 6.368C133.819 6.368 133.333 6.8 133.261 8.708ZM145.182 14.126C142.968 14.126 141.492 13.046 141.276 11.318C141.258 11.174 141.348 11.084 141.492 11.084H143.184C143.31 11.084 143.382 11.156 143.4 11.3C143.526 12.344 143.85 12.542 145.11 12.542C146.298 12.542 146.64 12.308 146.64 11.444C146.64 10.742 146.388 10.544 145.308 10.346L144.228 10.148C142.284 9.788 141.474 8.96 141.474 7.43C141.474 5.864 143.004 4.676 145.02 4.676C146.946 4.676 148.332 5.684 148.584 7.286C148.602 7.43 148.512 7.52 148.368 7.52H146.694C146.568 7.52 146.496 7.448 146.478 7.304C146.334 6.368 146.064 6.242 145.056 6.242C143.976 6.242 143.688 6.458 143.688 7.25C143.688 8.006 143.958 8.204 145.074 8.42L146.19 8.636C148.152 8.996 148.854 9.752 148.854 11.282C148.854 13.046 147.45 14.126 145.182 14.126ZM153.445 14.126C151.681 14.126 150.277 13.01 150.277 11.336C150.277 9.572 151.825 8.546 154.219 8.546H155.821C156.217 8.546 156.379 8.402 156.379 8.006V7.934C156.379 6.584 156.019 6.368 154.705 6.368C153.481 6.368 153.031 6.638 152.887 7.61C152.851 7.736 152.779 7.808 152.653 7.808H150.817C150.673 7.808 150.601 7.718 150.637 7.574C151.033 5.864 152.671 4.676 154.705 4.676C157.135 4.676 158.719 6.188 158.719 8.492V13.784C158.719 13.91 158.629 14 158.503 14H157.153C157.027 14 156.955 13.928 156.919 13.82L156.487 12.614H156.415C155.767 13.568 154.759 14.126 153.445 14.126ZM154.075 12.488C155.677 12.488 156.379 11.858 156.379 10.364V10.004H154.165C152.797 10.004 152.545 10.238 152.545 11.246C152.545 12.2 152.851 12.488 154.075 12.488ZM160.943 14C160.817 14 160.727 13.91 160.727 13.784V5.018C160.727 4.892 160.817 4.802 160.943 4.802H162.311C162.437 4.802 162.509 4.874 162.545 4.982L162.977 6.296H163.049C163.481 5.396 164.399 4.73 166.055 4.676C166.199 4.676 166.271 4.766 166.271 4.892V6.602C166.271 6.728 166.181 6.818 166.055 6.818H164.993C163.409 6.818 163.085 7.196 163.085 8.51V13.784C163.085 13.91 162.995 14 162.869 14H160.943ZM168.08 14C167.954 14 167.864 13.91 167.864 13.784V5.018C167.864 4.892 167.954 4.802 168.08 4.802H170.006C170.132 4.802 170.222 4.892 170.222 5.018V13.784C170.222 13.91 170.132 14 170.006 14H168.08ZM169.052 3.488C167.918 3.488 167.684 3.272 167.684 2.228C167.684 1.202 167.918 0.967999 169.052 0.967999C170.204 0.967999 170.438 1.202 170.438 2.228C170.438 3.272 170.204 3.488 169.052 3.488ZM175.278 14.126C173.514 14.126 172.11 13.01 172.11 11.336C172.11 9.572 173.658 8.546 176.052 8.546H177.654C178.05 8.546 178.212 8.402 178.212 8.006V7.934C178.212 6.584 177.852 6.368 176.538 6.368C175.314 6.368 174.864 6.638 174.72 7.61C174.684 7.736 174.612 7.808 174.486 7.808H172.65C172.506 7.808 172.434 7.718 172.47 7.574C172.866 5.864 174.504 4.676 176.538 4.676C178.968 4.676 180.552 6.188 180.552 8.492V13.784C180.552 13.91 180.462 14 180.336 14H178.986C178.86 14 178.788 13.928 178.752 13.82L178.32 12.614H178.248C177.6 13.568 176.592 14.126 175.278 14.126ZM175.908 12.488C177.51 12.488 178.212 11.858 178.212 10.364V10.004H175.998C174.63 10.004 174.378 10.238 174.378 11.246C174.378 12.2 174.684 12.488 175.908 12.488ZM185.817 14.126C183.693 14.126 182.559 12.632 182.559 10.58V1.616C182.559 1.49 182.649 1.4 182.775 1.4H184.701C184.827 1.4 184.917 1.49 184.917 1.616V11.39C184.917 12.344 185.007 12.434 186.051 12.434H186.483C186.609 12.434 186.699 12.524 186.699 12.65V13.82C186.699 13.946 186.663 14.018 186.573 14.036C186.375 14.108 186.105 14.126 185.817 14.126Z" fill="white"/>
</svg>
