<svg width="310" height="1301" viewBox="0 0 310 1301" fill="none" xmlns="http://www.w3.org/2000/svg">
<rect width="310" height="1301" fill="#F5F5F5"/>
<rect x="-91" y="-148" width="1040" height="1522" rx="12" fill="white"/>
<path d="M11 1066.75L178 1066.75" stroke="#001E22" stroke-width="0.329132" stroke-dasharray="0.99 0.99"/>
<path d="M15 228.75L291.8 228.75" stroke="#001E22" stroke-width="0.329132" stroke-dasharray="0.99 0.99"/>
<path d="M77.5546 36.1486C76.1266 38.2891 73.9423 39.6356 71.023 39.6451C70.8441 39.6531 70.6622 39.5916 70.5214 39.4592C70.516 39.4541 70.5107 39.4489 70.5055 39.4437C70.3812 39.3193 70.3043 39.1475 70.3043 38.9577C70.3043 38.7658 70.3829 38.5923 70.5096 38.4676C70.7398 38.2089 70.9533 37.7015 71.106 37.0684C71.1763 36.7769 71.2274 36.4861 71.262 36.224C70.0836 36.2892 68.5431 36.3066 67.6475 36.3066C65.5389 36.3066 63.6806 35.7734 62.3587 34.3968C61.0424 33.026 60.375 30.9398 60.375 28.09C60.375 25.4436 61.4854 23.5839 63.3049 22.421C65.0778 21.2879 67.4607 20.8542 69.9859 20.8542C72.5112 20.8542 74.9005 21.2879 76.6799 22.4203C78.5058 23.5823 79.625 25.4416 79.625 28.09C79.625 31.1656 78.9679 34.0303 77.5546 36.1486Z" fill="#003746"/>
<path d="M106.555 36.1486C105.127 38.2891 102.942 39.6356 100.023 39.6451C99.8441 39.6531 99.6622 39.5916 99.5214 39.4592C99.516 39.4541 99.5107 39.4489 99.5055 39.4437C99.3812 39.3193 99.3043 39.1475 99.3043 38.9577C99.3043 38.7658 99.3829 38.5923 99.5096 38.4676C99.7398 38.2089 99.9533 37.7015 100.106 37.0684C100.176 36.7769 100.227 36.4861 100.262 36.224C99.0836 36.2892 97.5431 36.3066 96.6475 36.3066C94.5389 36.3066 92.6806 35.7734 91.3587 34.3968C90.0424 33.026 89.375 30.9398 89.375 28.09C89.375 25.4436 90.4854 23.5839 92.3049 22.421C94.0778 21.2879 96.4607 20.8542 98.9859 20.8542C101.511 20.8542 103.9 21.2879 105.68 22.4203C107.506 23.5823 108.625 25.4416 108.625 28.09C108.625 31.1656 107.968 34.0303 106.555 36.1486Z" fill="#005162"/>
<path d="M6.0033 0.472803C7.00433 0.32845 8.26518 0.285522 9.83388 0.285522H12.1223C13.715 0.285522 14.9908 0.336589 16.0019 0.491741C17.01 0.646436 17.821 0.913545 18.4328 1.3951C18.5229 1.46599 18.6072 1.54038 18.6862 1.61818L12.9352 7.3162C11.8669 8.37469 10.1324 8.37469 9.0641 7.3162L3.29247 1.59769C3.38196 1.50804 3.47848 1.42305 3.58257 1.34285C4.19632 0.869927 5.00579 0.616647 6.0033 0.472803Z" fill="#005162"/>
<path d="M2.59619 2.68438C2.51827 2.8819 2.45432 3.09084 2.40197 3.31065C2.21278 4.105 2.16553 5.08145 2.16553 6.24415V7.17771C2.16553 8.32939 2.20457 9.30412 2.38157 10.1007C2.56277 10.9161 2.89897 11.5933 3.52248 12.097C4.12845 12.5866 4.9364 12.855 5.94287 13.0095C6.95235 13.1644 8.23118 13.2142 9.83388 13.2142H12.1223C13.7145 13.2142 14.9904 13.1644 16.0017 13.0095C17.0101 12.855 17.8225 12.5871 18.4351 12.1003C19.0655 11.5994 19.4135 10.9246 19.6036 10.1067C19.7893 9.30796 19.8338 8.33177 19.8338 7.17771V6.24415C19.8338 5.11402 19.7893 4.15393 19.6031 3.36601C19.5473 3.13015 19.4781 2.90627 19.3923 2.69514L13.8235 8.2127C12.2633 9.75855 9.73606 9.75855 8.17585 8.2127L2.59619 2.68438Z" fill="#005162"/>
<path d="M45.7533 0.472803C46.7543 0.32845 48.0152 0.285522 49.5839 0.285522H51.8723C53.465 0.285522 54.7408 0.336589 55.7519 0.491741C56.76 0.646436 57.571 0.913545 58.1828 1.3951C58.2729 1.46599 58.3572 1.54038 58.4362 1.61818L52.6852 7.3162C51.6169 8.37469 49.8824 8.37469 48.8141 7.3162L43.0425 1.59769C43.132 1.50804 43.2285 1.42305 43.3326 1.34285C43.9463 0.869927 44.7558 0.616647 45.7533 0.472803Z" fill="#003746"/>
<path d="M42.3462 2.68438C42.2683 2.8819 42.2043 3.09084 42.152 3.31065C41.9628 4.105 41.9155 5.08145 41.9155 6.24415V7.17771C41.9155 8.32939 41.9546 9.30412 42.1316 10.1007C42.3128 10.9161 42.649 11.5933 43.2725 12.097C43.8785 12.5866 44.6864 12.855 45.6929 13.0095C46.7023 13.1644 47.9812 13.2142 49.5839 13.2142H51.8723C53.4645 13.2142 54.7404 13.1644 55.7517 13.0095C56.7601 12.855 57.5725 12.5871 58.1851 12.1003C58.8155 11.5994 59.1635 10.9246 59.3536 10.1067C59.5393 9.30796 59.5838 8.33177 59.5838 7.17771V6.24415C59.5838 5.11402 59.5393 4.15393 59.3531 3.36601C59.2973 3.13015 59.2281 2.90627 59.1423 2.69514L53.5735 8.2127C52.0133 9.75855 49.4861 9.75855 47.9259 8.2127L42.3462 2.68438Z" fill="#003746"/>
<path d="M39.723 21.2809C38.0075 21.2809 36.6271 21.3324 35.5305 21.506C34.4349 21.6794 33.5507 21.9847 32.8853 22.5475C32.2064 23.1216 31.8331 23.8967 31.6271 24.8464C31.4244 25.7807 31.3725 26.9364 31.3725 28.3304V29.4503C31.3725 30.8319 31.4155 31.9862 31.6053 32.9239C31.64 33.0952 31.6799 33.2611 31.726 33.4215H37.8421C38.4196 33.4215 38.9038 33.8191 39.0366 34.3558C39.1672 34.4468 39.6595 34.703 40.9971 34.703C42.3347 34.703 42.8271 34.4468 42.9577 34.3558C43.0904 33.8191 43.5746 33.4215 44.1522 33.4215H50.2504C50.2975 33.263 50.3386 33.099 50.3744 32.9297C50.5735 31.9899 50.6225 30.8342 50.6225 29.4503V28.3304C50.6225 26.9377 50.5736 25.7822 50.3742 24.8485C50.1715 23.8991 49.8016 23.1227 49.1214 22.5475C48.4553 21.9841 47.5673 21.679 46.4636 21.5058C45.3585 21.3324 43.9637 21.2809 42.2249 21.2809H39.723Z" fill="#005162"/>
<path d="M30.6067 35.2719C30.6067 34.855 30.9371 34.5153 31.3479 34.5153H37.8421C37.9132 34.5153 37.9721 34.5699 37.9782 34.6391C37.983 34.6923 37.9955 34.7446 38.0154 34.7942L38.0162 34.7963L38.0179 34.8003C38.0587 34.8999 38.1437 35.0412 38.3227 35.1866C38.6823 35.4788 39.4343 35.7968 40.9971 35.7968C42.5599 35.7968 43.312 35.4788 43.6716 35.1866C43.8506 35.0412 43.9356 34.8999 43.9764 34.8004L43.9789 34.7941C43.9988 34.7445 44.0113 34.6923 44.016 34.6391C44.0222 34.5699 44.0811 34.5153 44.1522 34.5153H50.6467C51.0575 34.5153 51.3879 34.855 51.3879 35.2719V35.8913C51.3879 36.6585 51.0526 37.413 50.3598 37.9728C49.6685 38.5315 48.6296 38.8903 47.2279 38.8903H34.7667C33.3349 38.8903 32.2955 38.5255 31.6113 37.963C30.9257 37.3993 30.6067 36.6448 30.6067 35.8913V35.2719Z" fill="#005162"/>
<path d="M10.223 21.2809C8.5075 21.2809 7.12712 21.3324 6.03053 21.506C4.93486 21.6794 4.05067 21.9847 3.38529 22.5475C2.7064 23.1216 2.33313 23.8967 2.12708 24.8464C1.92439 25.7807 1.87247 26.9364 1.87247 28.3304V29.4503C1.87247 30.8319 1.91547 31.9862 2.10532 32.9239C2.13999 33.0952 2.17993 33.2611 2.226 33.4215H8.34208C8.91964 33.4215 9.40384 33.8191 9.53657 34.3558C9.66716 34.4468 10.1595 34.703 11.4971 34.703C12.8347 34.703 13.3271 34.4468 13.4577 34.3558C13.5904 33.8191 14.0746 33.4215 14.6522 33.4215H20.7504C20.7975 33.263 20.8386 33.099 20.8744 32.9297C21.0735 31.9899 21.1225 30.8342 21.1225 29.4503V28.3304C21.1225 26.9377 21.0736 25.7822 20.8742 24.8485C20.6715 23.8991 20.3016 23.1227 19.6214 22.5475C18.9553 21.9841 18.0673 21.679 16.9636 21.5058C15.8585 21.3324 14.4637 21.2809 12.7249 21.2809H10.223Z" fill="#003746"/>
<path d="M1.10669 35.2719C1.10669 34.855 1.43713 34.5153 1.84793 34.5153H8.34208C8.41316 34.5153 8.47208 34.5699 8.47823 34.6391C8.48297 34.6923 8.49548 34.7446 8.51538 34.7942L8.5162 34.7963L8.51787 34.8003C8.55871 34.8999 8.64369 35.0412 8.82266 35.1866C9.18229 35.4788 9.93432 35.7968 11.4971 35.7968C13.0599 35.7968 13.812 35.4788 14.1716 35.1866C14.3506 35.0412 14.4356 34.8999 14.4764 34.8004L14.4789 34.7941C14.4988 34.7445 14.5113 34.6923 14.516 34.6391C14.5222 34.5699 14.5811 34.5153 14.6522 34.5153H21.1467C21.5575 34.5153 21.8879 34.855 21.8879 35.2719V35.8913C21.8879 36.6585 21.5526 37.413 20.8598 37.9728C20.1685 38.5315 19.1296 38.8903 17.7279 38.8903H5.26671C3.83486 38.8903 2.79546 38.5255 2.11127 37.963C1.42569 37.3993 1.10669 36.6448 1.10669 35.8913V35.2719Z" fill="#003746"/>
</svg>
